<svg width="37" height="37" viewBox="0 0 37 37" fill="none" xmlns="http://www.w3.org/2000/svg">
<g filter="url(#filter0_d_67_2091)">
<path d="M18.125 10C16.518 10 14.9471 10.4765 13.611 11.3693C12.2748 12.2621 11.2334 13.531 10.6185 15.0157C10.0035 16.5003 9.84262 18.134 10.1561 19.7101C10.4696 21.2862 11.2435 22.7339 12.3798 23.8702C13.5161 25.0065 14.9638 25.7804 16.5399 26.0939C18.116 26.4074 19.7497 26.2465 21.2343 25.6315C22.719 25.0166 23.9879 23.9752 24.8807 22.639C25.7735 21.3029 26.25 19.732 26.25 18.125C26.2477 15.9708 25.391 13.9055 23.8677 12.3823C22.3445 10.859 20.2792 10.0023 18.125 10ZM17.8125 13.75C17.9979 13.75 18.1792 13.805 18.3334 13.908C18.4875 14.011 18.6077 14.1574 18.6786 14.3287C18.7496 14.5 18.7682 14.6885 18.732 14.8704C18.6958 15.0523 18.6065 15.2193 18.4754 15.3504C18.3443 15.4815 18.1773 15.5708 17.9954 15.607C17.8135 15.6432 17.625 15.6246 17.4537 15.5536C17.2824 15.4827 17.136 15.3625 17.033 15.2083C16.93 15.0542 16.875 14.8729 16.875 14.6875C16.875 14.4389 16.9738 14.2004 17.1496 14.0246C17.3254 13.8488 17.5639 13.75 17.8125 13.75ZM18.75 22.5C18.4185 22.5 18.1005 22.3683 17.8661 22.1339C17.6317 21.8995 17.5 21.5815 17.5 21.25V18.125C17.3342 18.125 17.1753 18.0592 17.0581 17.9419C16.9409 17.8247 16.875 17.6658 16.875 17.5C16.875 17.3342 16.9409 17.1753 17.0581 17.0581C17.1753 16.9408 17.3342 16.875 17.5 16.875C17.8315 16.875 18.1495 17.0067 18.3839 17.2411C18.6183 17.4755 18.75 17.7935 18.75 18.125V21.25C18.9158 21.25 19.0747 21.3158 19.1919 21.4331C19.3092 21.5503 19.375 21.7092 19.375 21.875C19.375 22.0408 19.3092 22.1997 19.1919 22.3169C19.0747 22.4342 18.9158 22.5 18.75 22.5Z" fill="url(#paint0_linear_67_2091)"/>
</g>
<defs>
<filter id="filter0_d_67_2091" x="0" y="0" width="36.25" height="36.25" filterUnits="userSpaceOnUse" color-interpolation-filters="sRGB">
<feFlood flood-opacity="0" result="BackgroundImageFix"/>
<feColorMatrix in="SourceAlpha" type="matrix" values="0 0 0 0 0 0 0 0 0 0 0 0 0 0 0 0 0 0 127 0" result="hardAlpha"/>
<feOffset/>
<feGaussianBlur stdDeviation="5"/>
<feComposite in2="hardAlpha" operator="out"/>
<feColorMatrix type="matrix" values="0 0 0 0 0.560324 0 0 0 0 0 0 0 0 0 0.748077 0 0 0 0.7 0"/>
<feBlend mode="normal" in2="BackgroundImageFix" result="effect1_dropShadow_67_2091"/>
<feBlend mode="normal" in="SourceGraphic" in2="effect1_dropShadow_67_2091" result="shape"/>
</filter>
<linearGradient id="paint0_linear_67_2091" x1="15.7095" y1="10" x2="15.7095" y2="26.25" gradientUnits="userSpaceOnUse">
<stop stop-color="#E597FF"/>
<stop offset="1" stop-color="#BF00FF"/>
</linearGradient>
</defs>
</svg>
