<svg width="39" height="34" viewBox="0 0 39 34" fill="none" xmlns="http://www.w3.org/2000/svg">
<g filter="url(#filter0_d_67_2087)">
<path d="M14.3832 17.8007C14.3853 17.843 14.3788 17.8853 14.364 17.925C14.3493 17.9648 14.3266 18.0011 14.2973 18.0318C14.2681 18.0625 14.2329 18.0869 14.194 18.1036C14.155 18.1203 14.113 18.1288 14.0707 18.1288H10.6238C10.4827 18.129 10.3457 18.0815 10.2351 17.994C10.1245 17.9064 10.0467 17.7841 10.0144 17.6468C9.99432 17.5528 9.99525 17.4555 10.0171 17.3619C10.039 17.2683 10.0813 17.1807 10.141 17.1053C10.6924 16.3741 11.424 15.7983 12.2644 15.4343C11.8954 15.0978 11.6125 14.6779 11.4392 14.2097C11.2659 13.7414 11.2073 13.2384 11.2683 12.7429C11.3294 12.2473 11.5083 11.7736 11.7901 11.3614C12.0718 10.9492 12.4483 10.6106 12.8879 10.3738C13.3275 10.137 13.8174 10.009 14.3166 10.0005C14.8158 9.99194 15.3098 10.1032 15.7572 10.3248C16.2046 10.5465 16.5924 10.8722 16.8881 11.2745C17.1837 11.6769 17.3787 12.1442 17.4566 12.6374C17.4667 12.7037 17.4548 12.7715 17.4228 12.8304C17.3908 12.8894 17.3404 12.9363 17.2793 12.9639C16.4124 13.3647 15.6782 14.0051 15.1634 14.8095C14.6486 15.6139 14.3746 16.5487 14.3738 17.5038C14.3738 17.6038 14.3738 17.7022 14.3832 17.8007ZM28.6019 17.1046C28.0518 16.3741 27.3218 15.7987 26.4832 15.4343C26.8521 15.0978 27.1351 14.6779 27.3084 14.2097C27.4817 13.7414 27.5403 13.2384 27.4792 12.7429C27.4182 12.2473 27.2393 11.7736 26.9575 11.3614C26.6757 10.9492 26.2993 10.6106 25.8597 10.3738C25.4201 10.137 24.9302 10.009 24.431 10.0005C23.9317 9.99194 23.4377 10.1032 22.9903 10.3248C22.5429 10.5465 22.1552 10.8722 21.8595 11.2745C21.5638 11.6769 21.3689 12.1442 21.291 12.6374C21.2809 12.7037 21.2928 12.7715 21.3248 12.8304C21.3568 12.8894 21.4072 12.9363 21.4683 12.9639C22.3352 13.3647 23.0694 14.0051 23.5842 14.8095C24.099 15.6139 24.373 16.5487 24.3738 17.5038C24.3738 17.6038 24.3738 17.7022 24.3644 17.8007C24.3623 17.843 24.3688 17.8853 24.3836 17.925C24.3983 17.9648 24.421 18.0011 24.4502 18.0318C24.4795 18.0625 24.5146 18.0869 24.5536 18.1036C24.5926 18.1203 24.6345 18.1288 24.6769 18.1288H28.1238C28.2649 18.129 28.4018 18.0815 28.5125 17.994C28.6231 17.9064 28.7009 17.7841 28.7332 17.6468C28.7534 17.5526 28.7524 17.4551 28.7304 17.3613C28.7084 17.2676 28.6658 17.1799 28.6058 17.1046H28.6019ZM21.6488 20.478C22.2711 20.0014 22.7284 19.3418 22.9565 18.5919C23.1845 17.8419 23.1719 17.0394 22.9203 16.2971C22.6686 15.5547 22.1907 14.9098 21.5537 14.4531C20.9167 13.9964 20.1525 13.7508 19.3687 13.7508C18.5849 13.7508 17.8207 13.9964 17.1837 14.4531C16.5467 14.9098 16.0688 15.5547 15.8172 16.2971C15.5655 17.0394 15.5529 17.8419 15.7809 18.5919C16.009 19.3418 16.4663 20.0014 17.0886 20.478C15.9844 20.9565 15.0623 21.7759 14.4574 22.8163C14.4025 22.9113 14.3736 23.0191 14.3736 23.1288C14.3737 23.2385 14.4025 23.3463 14.4574 23.4413C14.5123 23.5364 14.5912 23.6153 14.6862 23.6701C14.7813 23.7249 14.8891 23.7538 14.9988 23.7538H23.7488C23.8585 23.7538 23.9663 23.7249 24.0613 23.6701C24.1564 23.6153 24.2353 23.5364 24.2902 23.4413C24.345 23.3463 24.3739 23.2385 24.3739 23.1288C24.3739 23.0191 24.3451 22.9113 24.2902 22.8163C23.684 21.7752 22.7602 20.9557 21.6543 20.478H21.6488Z" fill="url(#paint0_linear_67_2087)"/>
</g>
<defs>
<filter id="filter0_d_67_2087" x="0" y="0" width="38.7477" height="33.7538" filterUnits="userSpaceOnUse" color-interpolation-filters="sRGB">
<feFlood flood-opacity="0" result="BackgroundImageFix"/>
<feColorMatrix in="SourceAlpha" type="matrix" values="0 0 0 0 0 0 0 0 0 0 0 0 0 0 0 0 0 0 127 0" result="hardAlpha"/>
<feOffset/>
<feGaussianBlur stdDeviation="5"/>
<feComposite in2="hardAlpha" operator="out"/>
<feColorMatrix type="matrix" values="0 0 0 0 0.560324 0 0 0 0 0 0 0 0 0 0.748077 0 0 0 0.7 0"/>
<feBlend mode="normal" in2="BackgroundImageFix" result="effect1_dropShadow_67_2087"/>
<feBlend mode="normal" in="SourceGraphic" in2="effect1_dropShadow_67_2087" result="shape"/>
</filter>
<linearGradient id="paint0_linear_67_2087" x1="16.587" y1="10" x2="16.587" y2="23.7538" gradientUnits="userSpaceOnUse">
<stop stop-color="#E597FF"/>
<stop offset="1" stop-color="#BF00FF"/>
</linearGradient>
</defs>
</svg>
