<svg width="21" height="21" viewBox="0 0 21 21" fill="none" xmlns="http://www.w3.org/2000/svg">
<path d="M16.7536 15.388C16.9348 15.5692 17.0365 15.8149 17.0365 16.071C17.0365 16.3272 16.9348 16.5729 16.7536 16.7541C16.5725 16.9352 16.3268 17.037 16.0706 17.037C15.8144 17.037 15.5687 16.9352 15.3876 16.7541L10.2857 11.6506L5.1822 16.7525C5.00104 16.9336 4.75535 17.0354 4.49916 17.0354C4.24297 17.0354 3.99728 16.9336 3.81613 16.7525C3.63497 16.5713 3.5332 16.3256 3.5332 16.0694C3.5332 15.8133 3.63497 15.5676 3.81613 15.3864L8.91961 10.2845L3.81773 5.18105C3.63658 4.9999 3.53481 4.7542 3.53481 4.49801C3.53481 4.24182 3.63658 3.99613 3.81773 3.81498C3.99889 3.63382 4.24458 3.53205 4.50077 3.53205C4.75696 3.53205 5.00265 3.63382 5.1838 3.81498L10.2857 8.91846L15.3892 3.81417C15.5703 3.63302 15.816 3.53125 16.0722 3.53125C16.3284 3.53125 16.5741 3.63302 16.7552 3.81417C16.9364 3.99532 17.0382 4.24102 17.0382 4.49721C17.0382 4.7534 16.9364 4.99909 16.7552 5.18024L11.6518 10.2845L16.7536 15.388Z" fill="#F7F7F7"/>
</svg>
