<svg width="16" height="16" viewBox="0 0 16 16" fill="none" xmlns="http://www.w3.org/2000/svg">
<path d="M13.5655 2.92361C15.3622 5.59139 16.2605 8.58582 15.9339 12.043C15.9339 12.043 15.9339 12.0703 15.9066 12.0703C14.7089 12.9686 13.3478 13.6491 11.905 14.0847C11.8778 14.1119 11.8778 14.0847 11.8505 14.0847C11.5511 13.6491 11.2789 13.2136 11.0339 12.7508C11.0339 12.7236 11.0339 12.7236 11.0339 12.6964L11.0611 12.6691C11.4967 12.5058 11.905 12.3153 12.3133 12.0703C12.3133 12.0703 12.3405 12.0703 12.3405 12.043C12.3405 12.0158 12.3405 12.0158 12.3133 11.9886C12.2317 11.9341 12.15 11.8797 12.0683 11.798C12.0411 11.798 12.0411 11.798 12.0139 11.798C9.42777 12.9958 6.59667 12.9958 3.98334 11.798C3.95612 11.798 3.9289 11.798 3.9289 11.798C3.84723 11.8797 3.76556 11.9341 3.6839 11.9886C3.65667 12.0158 3.65667 12.0158 3.65667 12.043C3.65667 12.0703 3.65667 12.0703 3.6839 12.0703C4.06501 12.3153 4.50056 12.5058 4.93612 12.6691C4.93612 12.6691 4.93612 12.6964 4.96334 12.6964C4.96334 12.7236 4.96334 12.7236 4.96334 12.7508C4.71834 13.2136 4.44612 13.6491 4.14667 14.0847C4.11945 14.0847 4.09223 14.1119 4.09223 14.0847C2.64945 13.6491 1.28834 12.9686 0.0905696 12.0703C0.0633475 12.0703 0.0633475 12.043 0.0633475 12.043C-0.208874 9.0486 0.362791 6.02694 2.43168 2.92361C2.43168 2.92361 2.43168 2.92361 2.4589 2.92361C3.49334 2.43362 4.58223 2.10695 5.69834 1.9164C5.72556 1.88917 5.75278 1.9164 5.75278 1.9164C5.91611 2.18862 6.05222 2.48806 6.16111 2.76028C7.38611 2.56973 8.61111 2.56973 9.83611 2.76028C9.94499 2.48806 10.0811 2.18862 10.2444 1.9164C10.2444 1.9164 10.2717 1.88917 10.2989 1.9164C11.415 2.10695 12.5039 2.43362 13.5383 2.92361C13.5655 2.92361 13.5655 2.92361 13.5655 2.92361ZM5.34445 10.2192C6.13389 10.2192 6.78722 9.48415 6.78722 8.61304C6.78722 7.71471 6.16111 7.00694 5.34445 7.00694C4.55501 7.00694 3.90167 7.71471 3.90167 8.61304C3.90167 9.48415 4.55501 10.2192 5.34445 10.2192ZM10.6528 10.2192C11.4694 10.2192 12.0955 9.48415 12.0955 8.61304C12.1228 7.71471 11.4694 7.00694 10.6528 7.00694C9.86333 7.00694 9.23722 7.71471 9.23722 8.61304C9.23722 9.48415 9.86333 10.2192 10.6528 10.2192Z" fill="#F3F4F6"/>
</svg>
