<svg width="79" height="40" viewBox="0 0 79 40" fill="none" xmlns="http://www.w3.org/2000/svg">
<g clip-path="url(#clip0_104_283)">
<path d="M0 11C0 4.92487 4.92487 0 11 0H68C74.0751 0 79 4.92487 79 11V29C79 35.0751 74.0751 40 68 40H11C4.92487 40 0 35.0751 0 29V11Z" fill="#09090B" fill-opacity="0.7"/>
<path d="M55.4533 4.51246C54.8018 3.78041 53.6708 3.78677 53.0292 4.53645L43.7614 15.3626C43.4998 15.6682 43.3555 16.0614 43.3555 16.4686C43.3555 16.8757 43.4998 17.2689 43.7614 17.5746L53.0292 28.4007C53.6688 29.148 54.799 29.16 55.4533 28.4247L65.0872 17.5986C65.6564 16.9589 65.6564 15.9782 65.0872 15.3386L55.4533 4.51246Z" fill="white" fill-opacity="0.06"/>
<path d="M53.3331 4.79688C53.8165 4.23207 54.6635 4.22676 55.1544 4.77832L64.7882 15.6045C65.2225 16.0925 65.2225 16.845 64.7882 17.333L55.1544 28.1592C54.6616 28.7128 53.8153 28.704 53.3331 28.1406L44.0655 17.3145C43.8668 17.0822 43.756 16.7817 43.7559 16.4688C43.7559 16.1558 43.8668 15.8553 44.0655 15.623L53.3331 4.79688Z" stroke="white" stroke-opacity="0.15" stroke-width="0.8"/>
<path d="M39.4998 16.4688C39.4998 19.915 36.7832 22.7188 33.4441 22.7188C32.3805 22.7197 31.3358 22.4297 30.4162 21.8782V25.8438H31.9301C32.7662 25.8438 33.4441 26.5433 33.4441 27.4062C33.4441 28.2692 32.7662 28.9688 31.9301 28.9688H25.8744C25.0383 28.9688 24.3604 28.2692 24.3604 27.4062C24.3604 26.5433 25.0383 25.8438 25.8744 25.8438H27.3883V21.8782C26.4687 22.4297 25.424 22.7197 24.3604 22.7188C21.0213 22.7188 18.3047 19.915 18.3047 16.4688C18.3047 13.5605 20.2392 11.1099 22.8498 10.4156C22.7302 6.94406 25.4545 3.96875 28.9022 3.96875C32.3501 3.96875 35.0743 6.94406 34.9547 10.4156C37.5653 11.1099 39.4998 13.5605 39.4998 16.4688Z" fill="white" fill-opacity="0.06"/>
<path d="M28.9023 4.36914C32.1098 4.3692 34.6667 7.14211 34.5547 10.4014L34.5439 10.7207L34.8516 10.8018C37.2842 11.4487 39.0996 13.7389 39.0996 16.4688C39.0996 19.706 36.5506 22.3182 33.4443 22.3184H33.4434C32.4532 22.3192 31.4798 22.0495 30.6221 21.5352L30.0166 21.1719V26.2441H31.9297C32.5331 26.2441 33.0439 26.7522 33.0439 27.4062C33.0439 28.0603 32.5331 28.5684 31.9297 28.5684H25.874C25.2708 28.5682 24.7607 28.0601 24.7607 27.4062C24.7607 26.7524 25.2708 26.2443 25.874 26.2441H27.7881V21.1719L27.1826 21.5352C26.3247 22.0496 25.3507 22.3192 24.3604 22.3184C21.254 22.3183 18.7051 19.7061 18.7051 16.4688C18.7051 13.7391 20.5197 11.4488 22.9521 10.8018L23.2607 10.7207L23.25 10.4014C23.138 7.14208 25.6949 4.36914 28.9023 4.36914Z" stroke="white" stroke-opacity="0.15" stroke-width="0.8"/>
<path d="M53.125 -2.5C53.125 0.670549 50.5456 3.25 47.375 3.25C46.3652 3.25085 45.3732 2.98404 44.5 2.47672V6.125H45.9375C46.7314 6.125 47.375 6.76862 47.375 7.5625C47.375 8.35638 46.7314 9 45.9375 9H40.1875C39.3936 9 38.75 8.35638 38.75 7.5625C38.75 6.76862 39.3936 6.125 40.1875 6.125H41.625V2.47672C40.7518 2.98404 39.7598 3.25085 38.75 3.25C35.5795 3.25 33 0.670549 33 -2.5C33 -5.17557 34.8368 -7.43015 37.3157 -8.06888C37.2021 -11.2627 39.7888 -14 43.0625 -14C46.3363 -14 48.9229 -11.2627 48.8093 -8.06888C51.2882 -7.43015 53.125 -5.17557 53.125 -2.5Z" fill="white" fill-opacity="0.06"/>
<path d="M43.0625 -13.5996C46.1083 -13.5996 48.5147 -11.052 48.4092 -8.08301L48.3984 -7.76172L48.71 -7.68164C51.0166 -7.08711 52.7246 -4.98819 52.7246 -2.5C52.7246 0.449635 50.3246 2.84961 47.375 2.84961L47.0234 2.83887C46.2067 2.78546 45.4116 2.54362 44.7012 2.13086L44.0996 1.78125V6.52539H45.9375C46.5105 6.52539 46.9746 6.98953 46.9746 7.5625C46.9746 8.13547 46.5105 8.59961 45.9375 8.59961H40.1875C39.6145 8.59961 39.1504 8.13547 39.1504 7.5625C39.1504 6.98953 39.6145 6.52539 40.1875 6.52539H42.0254V1.78125L41.4238 2.13086C40.6118 2.60259 39.6891 2.8504 38.75 2.84961C35.8004 2.84961 33.4004 0.449635 33.4004 -2.5C33.4004 -4.98819 35.1084 -7.08711 37.415 -7.68164L37.7266 -7.76172L37.7158 -8.08301C37.6103 -11.052 40.0168 -13.5996 43.0625 -13.5996Z" stroke="white" stroke-opacity="0.15" stroke-width="0.8"/>
<path d="M28.9062 38.4198C28.9062 33.7974 32.0333 30 36.3383 30C38.5356 30 40.4529 31.0204 41.9123 32.9586C43.3718 31.0204 45.2891 30 47.4864 30C51.7912 30 54.9184 33.7972 54.9184 38.42C54.9184 44.28 49.795 47.9012 43.1359 54.0596C42.7972 54.3728 42.3624 54.5455 41.9123 54.5455C41.4623 54.5455 41.0275 54.3728 40.6888 54.0596C34.0299 47.9015 28.9062 44.2813 28.9062 38.4198Z" fill="white" fill-opacity="0.06"/>
<path d="M47.4863 30.4004C51.5174 30.4004 54.5185 33.9613 54.5186 38.4199C54.5186 41.2148 53.3034 43.4948 51.2236 45.8643C49.1287 48.251 46.2181 50.664 42.8643 53.7656C42.5974 54.0124 42.2587 54.1455 41.9121 54.1455C41.5656 54.1454 41.2267 54.0123 40.96 53.7656C37.6062 50.6641 34.6956 48.2509 32.6006 45.8643C30.521 43.4951 29.3067 41.2153 29.3066 38.4199C29.3066 33.9618 32.3068 30.4006 36.3379 30.4004C38.3947 30.4004 40.1995 31.349 41.5928 33.1992L41.9121 33.623L42.2314 33.1992C43.6247 31.349 45.4295 30.4004 47.4863 30.4004Z" stroke="white" stroke-opacity="0.15" stroke-width="0.8"/>
<path d="M-5.78516 -1.58016C-5.78516 -6.20258 -2.65812 -10 1.6469 -10C3.84419 -10 5.76153 -8.97956 7.22094 -7.04145C8.68035 -8.97956 10.5977 -10 12.795 -10C17.0998 -10 20.227 -6.20284 20.227 -1.58003C20.227 4.28 15.1036 7.90122 8.44451 14.0596C8.10579 14.3728 7.67101 14.5455 7.22094 14.5455C6.77087 14.5455 6.3361 14.3728 5.99738 14.0596C-0.661497 7.90148 -5.78516 4.28131 -5.78516 -1.58016Z" fill="white" fill-opacity="0.06"/>
<path d="M12.7949 -9.59961C16.826 -9.59961 19.8271 -6.03869 19.8271 -1.58008C19.8271 1.21478 18.612 3.49478 16.5322 5.86426C14.4373 8.251 11.5267 10.664 8.17285 13.7656C7.906 14.0124 7.56734 14.1455 7.2207 14.1455C6.87415 14.1454 6.53534 14.0123 6.26855 13.7656C2.91483 10.6641 0.00414467 8.25089 -2.09082 5.86426C-4.17036 3.49509 -5.38474 1.21531 -5.38477 -1.58008C-5.38477 -6.03818 -2.38464 -9.59936 1.64648 -9.59961C3.7033 -9.59961 5.50813 -8.65102 6.90137 -6.80078L7.2207 -6.37695L7.54004 -6.80078C8.93326 -8.651 10.7381 -9.59959 12.7949 -9.59961Z" stroke="white" stroke-opacity="0.15" stroke-width="0.8"/>
<path d="M64.5527 -1.58016C64.5527 -6.20258 67.6798 -10 71.9848 -10C74.1821 -10 76.0994 -8.97956 77.5588 -7.04145C79.0182 -8.97956 80.9356 -10 83.1329 -10C87.4376 -10 90.5649 -6.20284 90.5649 -1.58003C90.5649 4.28 85.4415 7.90122 78.7824 14.0596C78.4437 14.3728 78.0089 14.5455 77.5588 14.5455C77.1088 14.5455 76.674 14.3728 76.3353 14.0596C69.6764 7.90148 64.5527 4.28131 64.5527 -1.58016Z" fill="white" fill-opacity="0.06"/>
<path d="M83.1328 -9.59961C87.1639 -9.59961 90.165 -6.03869 90.165 -1.58008C90.165 1.21478 88.9499 3.49478 86.8701 5.86426C84.7751 8.251 81.8646 10.664 78.5107 13.7656C78.2439 14.0124 77.9052 14.1455 77.5586 14.1455C77.212 14.1454 76.8732 14.0123 76.6064 13.7656C73.2527 10.6641 70.342 8.25089 68.2471 5.86426C66.1675 3.49509 64.9531 1.21531 64.9531 -1.58008C64.9531 -6.03818 67.9533 -9.59936 71.9844 -9.59961C74.0412 -9.59961 75.846 -8.65102 77.2393 -6.80078L77.5586 -6.37695L77.8779 -6.80078C79.2711 -8.651 81.076 -9.59959 83.1328 -9.59961Z" stroke="white" stroke-opacity="0.15" stroke-width="0.8"/>
<path d="M20 31.5C20 34.9462 17.1802 37.75 13.7143 37.75C12.6104 37.7509 11.5259 37.4609 10.5714 36.9095V40.875H12.1429C13.0107 40.875 13.7143 41.5746 13.7143 42.4375C13.7143 43.3004 13.0107 44 12.1429 44H5.85714C4.9893 44 4.28571 43.3004 4.28571 42.4375C4.28571 41.5746 4.9893 40.875 5.85714 40.875H7.42857V36.9095C6.47407 37.4609 5.38963 37.7509 4.28571 37.75C0.819772 37.75 -2 34.9462 -2 31.5C-2 28.5918 0.00797153 26.1411 2.71774 25.4469C2.5936 21.9753 5.42133 19 9 19C12.5788 19 15.4064 21.9753 15.2823 25.4469C17.992 26.1411 20 28.5918 20 31.5Z" fill="white" fill-opacity="0.06"/>
<path d="M9 19.4004C12.353 19.4004 14.9988 22.1882 14.8828 25.4326L14.8711 25.7549L15.1826 25.834C17.7215 26.4845 19.5996 28.7806 19.5996 31.5C19.5996 34.7232 16.961 37.3496 13.7139 37.3496C12.6803 37.3505 11.6649 37.0796 10.7715 36.5635L10.1719 36.2168V41.2754H12.1426C12.7917 41.2754 13.3145 41.7976 13.3145 42.4375C13.3145 43.0774 12.7917 43.5996 12.1426 43.5996H5.85742C5.20834 43.5996 4.68555 43.0774 4.68555 42.4375C4.68555 41.7976 5.20834 41.2754 5.85742 41.2754H7.82812V36.2168L7.22852 36.5635C6.33509 37.0796 5.31971 37.3505 4.28613 37.3496C1.03895 37.3496 -1.59961 34.7232 -1.59961 31.5C-1.59961 28.7806 0.278531 26.4845 2.81738 25.834L3.12891 25.7549L3.11719 25.4326C3.00117 22.1882 5.64706 19.4004 9 19.4004Z" stroke="white" stroke-opacity="0.15" stroke-width="0.8"/>
<path d="M92 33.5C92 36.9462 89.1802 39.75 85.7143 39.75C84.6104 39.7509 83.5259 39.4609 82.5714 38.9095V42.875H84.1429C85.0107 42.875 85.7143 43.5746 85.7143 44.4375C85.7143 45.3004 85.0107 46 84.1429 46H77.8571C76.9893 46 76.2857 45.3004 76.2857 44.4375C76.2857 43.5746 76.9893 42.875 77.8571 42.875H79.4286V38.9095C78.4741 39.4609 77.3896 39.7509 76.2857 39.75C72.8198 39.75 70 36.9462 70 33.5C70 30.5918 72.008 28.1411 74.7177 27.4469C74.5936 23.9753 77.4213 21 81 21C84.5788 21 87.4064 23.9753 87.2823 27.4469C89.992 28.1411 92 30.5918 92 33.5Z" fill="white" fill-opacity="0.06"/>
<path d="M81 21.4004C84.353 21.4004 86.9988 24.1882 86.8828 27.4326L86.8711 27.7549L87.1826 27.834C89.7215 28.4845 91.5996 30.7806 91.5996 33.5C91.5996 36.7232 88.961 39.3496 85.7139 39.3496C84.6803 39.3505 83.6649 39.0796 82.7715 38.5635L82.1719 38.2168V43.2754H84.1426C84.7917 43.2754 85.3145 43.7976 85.3145 44.4375C85.3145 45.0774 84.7917 45.5996 84.1426 45.5996H77.8574C77.2083 45.5996 76.6855 45.0774 76.6855 44.4375C76.6855 43.7976 77.2083 43.2754 77.8574 43.2754H79.8281V38.2168L79.2285 38.5635C78.3351 39.0796 77.3197 39.3505 76.2861 39.3496C73.039 39.3496 70.4004 36.7232 70.4004 33.5C70.4004 30.7806 72.2785 28.4845 74.8174 27.834L75.1289 27.7549L75.1172 27.4326C75.0012 24.1882 77.6471 21.4004 81 21.4004Z" stroke="white" stroke-opacity="0.15" stroke-width="0.8"/>
</g>
<defs>
<clipPath id="clip0_104_283">
<path d="M0 11C0 4.92487 4.92487 0 11 0H68C74.0751 0 79 4.92487 79 11V29C79 35.0751 74.0751 40 68 40H11C4.92487 40 0 35.0751 0 29V11Z" fill="white"/>
</clipPath>
</defs>
</svg>
