<svg width="20" height="20" viewBox="0 0 20 20" fill="none" xmlns="http://www.w3.org/2000/svg">
<path d="M18.7491 10.1951C18.7491 9.47569 18.6896 8.95069 18.5606 8.40625H10.1777V11.6534H15.0984C14.9991 12.4604 14.4634 13.6757 13.2729 14.4924L13.2563 14.601L15.9068 16.6132L16.0904 16.6312C17.7769 15.1049 18.7491 12.859 18.7491 10.1951Z" fill="#4185F0"/>
<path d="M10.1813 18.746C12.592 18.746 14.6157 17.9683 16.094 16.6266L13.2765 14.4876C12.5225 15.0029 11.5106 15.3626 10.1813 15.3626C7.82018 15.3626 5.81623 13.8363 5.10188 11.7266L4.99717 11.7353L2.24113 13.8255L2.20508 13.9238C3.67332 16.7821 6.68918 18.746 10.1813 18.746Z" fill="#3DD179"/>
<path d="M5.09916 11.7322C4.91068 11.1878 4.80159 10.6044 4.80159 10.0016C4.80159 9.39881 4.91068 8.8155 5.08925 8.27106L5.08425 8.15511L2.29366 6.03125L2.20236 6.07381C1.59723 7.25994 1.25 8.5919 1.25 10.0016C1.25 11.4113 1.59723 12.7432 2.20236 13.9294L5.09916 11.7322Z" fill="#FBBC05"/>
<path d="M10.1813 4.63331C11.8579 4.63331 12.9887 5.34302 13.6336 5.93612L16.1535 3.525C14.606 2.11529 12.592 1.25 10.1813 1.25C6.6892 1.25 3.67332 3.21388 2.20508 6.07219L5.09198 8.26944C5.81625 6.15971 7.8202 4.63331 10.1813 4.63331Z" fill="#F1323E"/>
</svg>
