<svg width="35" height="36" viewBox="0 0 35 36" fill="none" xmlns="http://www.w3.org/2000/svg">
<g filter="url(#filter0_d_67_2077)">
<path d="M25 17.4994V24.9994C25 25.1652 24.9342 25.3242 24.8169 25.4414C24.6997 25.5586 24.5408 25.6244 24.375 25.6244H20C19.8342 25.6244 19.6753 25.5586 19.5581 25.4414C19.4408 25.3242 19.375 25.1652 19.375 24.9994V20.9369C19.375 20.854 19.3421 20.7746 19.2835 20.7159C19.2249 20.6573 19.1454 20.6244 19.0625 20.6244H15.9375C15.8546 20.6244 15.7751 20.6573 15.7165 20.7159C15.6579 20.7746 15.625 20.854 15.625 20.9369V24.9994C15.625 25.1652 15.5592 25.3242 15.4419 25.4414C15.3247 25.5586 15.1658 25.6244 15 25.6244H10.625C10.4592 25.6244 10.3003 25.5586 10.1831 25.4414C10.0658 25.3242 10 25.1652 10 24.9994V17.4994C10.0002 17.168 10.132 16.8501 10.3664 16.6158L16.6164 10.3658C16.8508 10.1316 17.1686 10 17.5 10C17.8314 10 18.1492 10.1316 18.3836 10.3658L24.6336 16.6158C24.868 16.8501 24.9998 17.168 25 17.4994Z" fill="url(#paint0_linear_67_2077)"/>
</g>
<defs>
<filter id="filter0_d_67_2077" x="0" y="0" width="35" height="35.6244" filterUnits="userSpaceOnUse" color-interpolation-filters="sRGB">
<feFlood flood-opacity="0" result="BackgroundImageFix"/>
<feColorMatrix in="SourceAlpha" type="matrix" values="0 0 0 0 0 0 0 0 0 0 0 0 0 0 0 0 0 0 127 0" result="hardAlpha"/>
<feOffset/>
<feGaussianBlur stdDeviation="5"/>
<feComposite in2="hardAlpha" operator="out"/>
<feColorMatrix type="matrix" values="0 0 0 0 0.560324 0 0 0 0 0 0 0 0 0 0.748077 0 0 0 0.7 0"/>
<feBlend mode="normal" in2="BackgroundImageFix" result="effect1_dropShadow_67_2077"/>
<feBlend mode="normal" in="SourceGraphic" in2="effect1_dropShadow_67_2077" result="shape"/>
</filter>
<linearGradient id="paint0_linear_67_2077" x1="15.2703" y1="10" x2="15.2703" y2="25.6244" gradientUnits="userSpaceOnUse">
<stop stop-color="#E597FF"/>
<stop offset="1" stop-color="#BF00FF"/>
</linearGradient>
</defs>
</svg>
