<svg width="16" height="16" viewBox="0 0 16 16" fill="none" xmlns="http://www.w3.org/2000/svg">
<path d="M8.05078 2.31024C9.97247 2.31024 10.2345 2.31024 11.0207 2.31024C11.7195 2.31024 12.0689 2.48494 12.3309 2.57229C12.6803 2.74699 12.9423 2.83434 13.2044 3.09639C13.4664 3.35843 13.6411 3.62048 13.7285 3.96988C13.8158 4.23193 13.9032 4.58133 13.9905 5.28012C13.9905 6.06627 13.9905 6.24096 13.9905 8.25C13.9905 10.259 13.9905 10.4337 13.9905 11.2199C13.9905 11.9187 13.8158 12.2681 13.7285 12.5301C13.5538 12.8795 13.4664 13.1416 13.2044 13.4036C12.9423 13.6657 12.6803 13.8404 12.3309 13.9277C12.0689 14.0151 11.7195 14.1024 11.0207 14.1898C10.2345 14.1898 10.0598 14.1898 8.05078 14.1898C6.04175 14.1898 5.86705 14.1898 5.0809 14.1898C4.38211 14.1898 4.03271 14.0151 3.77066 13.9277C3.42126 13.753 3.15922 13.6657 2.89717 13.4036C2.63512 13.1416 2.46042 12.8795 2.37307 12.5301C2.28572 12.2681 2.19837 11.9187 2.11102 11.2199C2.11102 10.4337 2.11102 10.259 2.11102 8.25C2.11102 6.24096 2.11102 6.06627 2.11102 5.28012C2.11102 4.58133 2.28572 4.23193 2.37307 3.96988C2.54777 3.62048 2.63512 3.35843 2.89717 3.09639C3.15922 2.83434 3.42126 2.65964 3.77066 2.57229C4.03271 2.48494 4.38211 2.39759 5.0809 2.31024C5.86705 2.31024 6.1291 2.31024 8.05078 2.31024ZM8.05078 1C6.04175 1 5.86705 1 5.0809 1C4.29476 1 3.77066 1.1747 3.33391 1.3494C2.89717 1.5241 2.46042 1.78615 2.02367 2.22289C1.58693 2.65964 1.41223 3.00904 1.15018 3.53313C0.975481 3.96988 0.888131 4.49398 0.800781 5.28012C0.800781 6.06627 0.800781 6.32831 0.800781 8.25C0.800781 10.259 0.800781 10.4337 0.800781 11.2199C0.800781 12.006 0.975481 12.5301 1.15018 12.9669C1.32488 13.4036 1.58693 13.8404 2.02367 14.2771C2.46042 14.7139 2.80982 14.8886 3.33391 15.1506C3.77066 15.3253 4.29476 15.4127 5.0809 15.5C5.86705 15.5 6.1291 15.5 8.05078 15.5C9.97247 15.5 10.2345 15.5 11.0207 15.5C11.8068 15.5 12.3309 15.3253 12.7676 15.1506C13.2044 14.9759 13.6411 14.7139 14.0779 14.2771C14.5146 13.8404 14.6893 13.491 14.9514 12.9669C15.1261 12.5301 15.2134 12.006 15.3008 11.2199C15.3008 10.4337 15.3008 10.1717 15.3008 8.25C15.3008 6.32831 15.3008 6.06627 15.3008 5.28012C15.3008 4.49398 15.1261 3.96988 14.9514 3.53313C14.7767 3.09639 14.5146 2.65964 14.0779 2.22289C13.6411 1.78615 13.2917 1.61145 12.7676 1.3494C12.3309 1.1747 11.8068 1.08735 11.0207 1C10.2345 1 10.0598 1 8.05078 1Z" fill="#F3F4F6"/>
<path d="M8.05078 4.49398C5.9544 4.49398 4.29476 6.15361 4.29476 8.25C4.29476 10.3464 5.9544 12.006 8.05078 12.006C10.1472 12.006 11.8068 10.3464 11.8068 8.25C11.8068 6.15361 10.1472 4.49398 8.05078 4.49398ZM8.05078 10.6958C6.74054 10.6958 5.605 9.64759 5.605 8.25C5.605 6.93976 6.65319 5.80422 8.05078 5.80422C9.36102 5.80422 10.4966 6.85241 10.4966 8.25C10.4966 9.56024 9.36102 10.6958 8.05078 10.6958Z" fill="#F3F4F6"/>
<path d="M11.8942 5.28012C12.3766 5.28012 12.7676 4.88904 12.7676 4.40663C12.7676 3.92421 12.3766 3.53313 11.8942 3.53313C11.4117 3.53313 11.0207 3.92421 11.0207 4.40663C11.0207 4.88904 11.4117 5.28012 11.8942 5.28012Z" fill="#F3F4F6"/>
</svg>
