<svg width="37" height="38" viewBox="0 0 37 38" fill="none" xmlns="http://www.w3.org/2000/svg">
<g filter="url(#filter0_d_67_2089)">
<path d="M26.25 18.1247V24.3747C26.25 25.2035 25.9208 25.9984 25.3347 26.5845C24.7487 27.1705 23.9538 27.4997 23.125 27.4997H18.75C18.5842 27.4997 18.4253 27.4339 18.3081 27.3167C18.1908 27.1995 18.125 27.0405 18.125 26.8747C18.125 26.709 18.1908 26.55 18.3081 26.4328C18.4253 26.3156 18.5842 26.2497 18.75 26.2497H23.125C23.6223 26.2497 24.0992 26.0522 24.4508 25.7006C24.8025 25.3489 25 24.872 25 24.3747H23.125C22.6277 24.3747 22.1508 24.1772 21.7992 23.8256C21.4475 23.4739 21.25 22.997 21.25 22.4997V19.3747C21.25 18.8775 21.4475 18.4005 21.7992 18.0489C22.1508 17.6973 22.6277 17.4997 23.125 17.4997H24.9727C24.8544 16.2005 24.3689 14.9617 23.5728 13.9281C22.7768 12.8944 21.703 12.1087 20.477 11.6625C19.2511 11.2163 17.9234 11.1282 16.6493 11.4085C15.3751 11.6887 14.2069 12.3257 13.2812 13.2451C12.1302 14.3809 11.4203 15.8889 11.2781 17.4997H13.125C13.6223 17.4997 14.0992 17.6973 14.4508 18.0489C14.8025 18.4005 15 18.8775 15 19.3747V22.4997C15 22.997 14.8025 23.4739 14.4508 23.8256C14.0992 24.1772 13.6223 24.3747 13.125 24.3747H11.875C11.3777 24.3747 10.9008 24.1772 10.5492 23.8256C10.1975 23.4739 10 22.997 10 22.4997V18.1247C10.0018 16.5153 10.481 14.9425 11.377 13.6055C12.273 12.2686 13.5455 11.2275 15.0334 10.614C16.5214 10.0005 18.1579 9.84233 19.7358 10.1594C21.3137 10.4764 22.7621 11.2545 23.8977 12.3951C24.6474 13.1484 25.2411 14.0423 25.6447 15.0255C26.0484 16.0087 26.2541 17.0619 26.25 18.1247Z" fill="url(#paint0_linear_67_2089)"/>
</g>
<defs>
<filter id="filter0_d_67_2089" x="0" y="0" width="36.2501" height="37.4998" filterUnits="userSpaceOnUse" color-interpolation-filters="sRGB">
<feFlood flood-opacity="0" result="BackgroundImageFix"/>
<feColorMatrix in="SourceAlpha" type="matrix" values="0 0 0 0 0 0 0 0 0 0 0 0 0 0 0 0 0 0 127 0" result="hardAlpha"/>
<feOffset/>
<feGaussianBlur stdDeviation="5"/>
<feComposite in2="hardAlpha" operator="out"/>
<feColorMatrix type="matrix" values="0 0 0 0 0.560324 0 0 0 0 0 0 0 0 0 0.748077 0 0 0 0.7 0"/>
<feBlend mode="normal" in2="BackgroundImageFix" result="effect1_dropShadow_67_2089"/>
<feBlend mode="normal" in="SourceGraphic" in2="effect1_dropShadow_67_2089" result="shape"/>
</filter>
<linearGradient id="paint0_linear_67_2089" x1="15.7095" y1="10" x2="15.7095" y2="27.4997" gradientUnits="userSpaceOnUse">
<stop stop-color="#E597FF"/>
<stop offset="1" stop-color="#BF00FF"/>
</linearGradient>
</defs>
</svg>
