<svg width="16" height="16" viewBox="0 0 16 16" fill="none" xmlns="http://www.w3.org/2000/svg">
<path d="M1.76321 7.20297C5.5213 5.49737 8.02728 4.37294 9.28115 3.82967C12.8612 2.27853 13.6051 2.00908 14.09 2.00009C14.1966 1.99822 14.4351 2.02575 14.5895 2.15631C14.7199 2.26654 14.7558 2.41546 14.773 2.51997C14.7902 2.62449 14.8116 2.86258 14.7946 3.04862C14.6006 5.17202 13.7611 10.3249 13.334 12.7032C13.1533 13.7095 12.7975 14.0469 12.453 14.0799C11.7044 14.1517 11.1359 13.5646 10.4108 13.0695C9.27624 12.2947 8.63526 11.8124 7.53393 11.0564C6.26115 10.1827 7.08624 9.70251 7.8116 8.91772C8.00142 8.71234 11.2999 5.58707 11.3637 5.30356C11.3717 5.2681 11.3791 5.13593 11.3037 5.06614C11.2284 4.99635 11.1171 5.02022 11.0368 5.0392C10.923 5.0661 9.11048 6.31407 5.59919 8.7831C5.0847 9.15111 4.61869 9.33042 4.20117 9.32102C3.74088 9.31066 2.85547 9.04992 2.19726 8.82704C1.38994 8.55368 0.7483 8.40915 0.804173 7.94488C0.833275 7.70307 1.15295 7.45576 1.76321 7.20297Z" fill="#F3F4F6"/>
</svg>
