<svg width="208" height="129" viewBox="0 0 208 129" fill="none" xmlns="http://www.w3.org/2000/svg">
<g clip-path="url(#clip0_67_2334)">
<rect width="208" height="129" rx="12" fill="#080C17"/>
<rect width="208" height="129" rx="12" fill="black" fill-opacity="0.2"/>
<g clip-path="url(#clip1_67_2334)">
<path opacity="0.2" d="M1.51205 90.4661C0.864802 90.3987 0.53138 89.9913 0.523471 89.4014C0.515126 88.7788 0.925755 88.3944 1.56945 88.3907C2.22787 88.3868 2.6475 88.8372 2.60991 89.4085C2.57501 89.9404 2.19718 90.3953 1.51205 90.4661Z" fill="#E5E5E7"/>
<path opacity="0.2" d="M33.9787 7.51122C33.5287 7.48285 33.2253 7.23071 33.2621 6.89658C33.3101 6.46181 33.6992 6.19911 34.167 6.30449C34.3832 6.35317 34.6825 6.60383 34.7065 6.79086C34.7687 7.27703 34.3863 7.45996 33.9787 7.51122Z" fill="#989B9E"/>
<path opacity="0.2" d="M9.5515 4.11317C8.8308 3.99261 8.35604 3.6525 8.38413 2.95211C8.40805 2.35529 8.75937 1.9338 9.46378 1.94555C10.2417 1.95853 10.6401 2.42005 10.6446 3.08023C10.6486 3.68491 10.2209 4.01802 9.5515 4.11317Z" fill="#F7F7F8"/>
<path opacity="0.2" d="M27.1737 34.7663C26.7436 34.6892 26.4603 34.4715 26.4771 34.0233C26.4913 33.6413 26.701 33.3715 27.1213 33.3791C27.5855 33.3874 27.8233 33.6827 27.8259 34.1053C27.8283 34.4922 27.5731 34.7054 27.1737 34.7663Z" fill="#F7F7F8"/>
<path opacity="0.2" d="M45.2679 2.25071C44.8378 2.17355 44.5545 1.95588 44.5713 1.50763C44.5855 1.12567 44.7952 0.85591 45.2155 0.863435C45.6797 0.871739 45.9175 1.16711 45.9201 1.58963C45.9225 1.97662 45.6673 2.18981 45.2679 2.25071Z" fill="#F7F7F8"/>
<path opacity="0.2" d="M18.2714 7.8774C17.7877 7.87525 17.5152 7.6255 17.4448 7.18642C17.3735 6.7417 17.5613 6.41237 18.0344 6.31117C18.6362 6.18243 18.9246 6.47767 18.9564 7.03242C18.9829 7.49564 18.7069 7.74957 18.2714 7.8774Z" fill="#DEDDDE"/>
<path opacity="0.2" d="M77.1714 32.7735C76.5611 32.7563 76.2627 32.4727 76.2358 32.0259C76.2087 31.5738 76.4925 31.2532 76.9857 31.2148C77.487 31.1758 77.7891 31.4348 77.8159 31.9182C77.8431 32.4059 77.4617 32.5986 77.1714 32.7735Z" fill="#D2D3D6"/>
<path opacity="0.2" d="M62.7212 3.61865C62.7762 3.07538 63.0313 2.73074 63.631 2.76392C64.1118 2.79049 64.3947 3.09687 64.4052 3.52733C64.4174 4.02887 64.1479 4.43694 63.586 4.48041C62.9792 4.52743 62.7643 4.12353 62.7212 3.61865Z" fill="#E6E8E8"/>
<path opacity="0.2" d="M27.6781 0.59375C27.668 1.04512 27.6372 1.3098 27.5045 1.46227C27.4073 1.40976 27.2969 1.31332 27.1513 1.17324C27.2941 1.31642 27.3918 1.42426 27.4442 1.51873C27.2821 1.6422 27.0055 1.66571 26.5341 1.66473C27.0052 1.67458 27.2813 1.70429 27.4404 1.83128C27.3856 1.92462 27.2854 2.03064 27.1393 2.16988C27.2881 2.03303 27.4009 1.93927 27.4991 1.88929C27.6281 2.04472 27.6524 2.30982 27.6516 2.76161C27.6617 2.30996 27.6927 2.0457 27.8253 1.89295C27.9225 1.94518 28.033 2.04162 28.1786 2.18156C28.0362 2.03852 27.9381 1.93054 27.8858 1.83635C28.0481 1.71288 28.3245 1.68937 28.7958 1.69035C28.3245 1.68092 28.0488 1.65121 27.8898 1.5238C27.9443 1.43074 28.0446 1.32472 28.1907 1.18534C28.0421 1.32205 27.9293 1.41596 27.8307 1.46579C27.7016 1.31051 27.6773 1.04512 27.6781 0.59375Z" fill="white"/>
<path opacity="0.2" d="M57.6532 39.6133C57.638 40.2903 57.5918 40.6874 57.3929 40.9161C57.247 40.8373 57.0814 40.6926 56.8631 40.4825C57.0772 40.6973 57.2237 40.859 57.3023 41.0007C57.0591 41.186 56.6443 41.2212 55.9372 41.2197C56.6439 41.2345 57.058 41.2791 57.2966 41.4696C57.2144 41.6096 57.0642 41.7686 56.845 41.9775C57.0681 41.7722 57.2373 41.6316 57.3847 41.5566C57.5781 41.7897 57.6147 42.1874 57.6134 42.8651C57.6286 42.1876 57.675 41.7912 57.874 41.5621C58.0198 41.6404 58.1855 41.7851 58.404 41.995C58.1903 41.7804 58.0432 41.6185 57.9647 41.4772C58.2082 41.292 58.6227 41.2567 59.3297 41.2582C58.6227 41.244 58.2093 41.1995 57.9707 41.0084C58.0524 40.8688 58.2029 40.7097 58.4221 40.5007C58.1991 40.7057 58.0299 40.8466 57.8821 40.9213C57.6885 40.6884 57.6519 40.2903 57.6532 39.6133Z" fill="white"/>
<path opacity="0.2" d="M119.789 7.36719C119.774 8.04424 119.727 8.44126 119.529 8.66997C119.383 8.5912 119.217 8.44654 118.999 8.23642C119.213 8.45119 119.359 8.61295 119.438 8.75465C119.195 8.93986 118.78 8.97513 118.073 8.97366C118.78 8.98844 119.194 9.03299 119.432 9.22348C119.35 9.3635 119.2 9.52252 118.981 9.73138C119.204 9.52611 119.373 9.38546 119.52 9.31049C119.714 9.54364 119.75 9.94129 119.749 10.619C119.764 9.9415 119.811 9.54512 120.01 9.31598C120.155 9.39433 120.321 9.53899 120.54 9.74891C120.326 9.53434 120.179 9.37237 120.1 9.23109C120.344 9.04588 120.758 9.01061 121.465 9.01209C120.758 8.99794 120.345 8.95338 120.106 8.76226C120.188 8.62267 120.339 8.46365 120.558 8.25458C120.335 8.45964 120.166 8.6005 120.018 8.67525C119.824 8.44232 119.788 8.04424 119.789 7.36719Z" fill="white"/>
<path opacity="0.2" d="M97.7891 8.17969C97.779 8.63106 97.7481 8.89574 97.6155 9.04821C97.5183 8.9957 97.4078 8.89926 97.2623 8.75917C97.405 8.90236 97.5027 9.0102 97.5551 9.10467C97.393 9.22814 97.1165 9.25165 96.645 9.25067C97.1162 9.26052 97.3923 9.29023 97.5513 9.41722C97.4965 9.51056 97.3964 9.61657 97.2503 9.75581C97.399 9.61897 97.5118 9.5252 97.6101 9.47522C97.739 9.63065 97.7634 9.89576 97.7625 10.3475C97.7726 9.8959 97.8036 9.63164 97.9362 9.47888C98.0335 9.53112 98.1439 9.62756 98.2896 9.7675C98.1471 9.62446 98.049 9.51647 97.9967 9.42229C98.159 9.29881 98.4354 9.2753 98.9067 9.27629C98.4354 9.26686 98.1598 9.23715 98.0007 9.10974C98.0552 9.01667 98.1555 8.91066 98.3016 8.77128C98.153 8.90799 98.0402 9.00189 97.9417 9.05173C97.8126 8.89644 97.7882 8.63106 97.7891 8.17969Z" fill="white"/>
<path opacity="0.2" d="M75.7434 39.6133C75.7282 40.2903 75.6819 40.6874 75.483 40.9161C75.3371 40.8373 75.1715 40.6926 74.9532 40.4825C75.1673 40.6973 75.3138 40.859 75.3924 41.0007C75.1492 41.186 74.7344 41.2212 74.0273 41.2197C74.734 41.2345 75.1481 41.2791 75.3867 41.4696C75.3045 41.6096 75.1543 41.7686 74.9351 41.9775C75.1583 41.7722 75.3274 41.6316 75.4748 41.5566C75.6682 41.7897 75.7048 42.1874 75.7035 42.8651C75.7187 42.1876 75.7652 41.7912 75.9641 41.5621C76.1099 41.6404 76.2756 41.7851 76.4941 41.995C76.2804 41.7804 76.1333 41.6185 76.0549 41.4772C76.2983 41.292 76.7129 41.2567 77.4198 41.2582C76.7129 41.244 76.2994 41.1995 76.0608 41.0084C76.1425 40.8688 76.293 40.7097 76.5122 40.5007C76.2892 40.7057 76.1201 40.8466 75.9722 40.9213C75.7786 40.6884 75.742 40.2903 75.7434 39.6133Z" fill="white"/>
<path opacity="0.2" d="M42.9497 36.3633C42.9345 37.0403 42.8882 37.4374 42.6893 37.6661C42.5434 37.5873 42.3778 37.4426 42.1595 37.2325C42.3736 37.4473 42.5201 37.609 42.5987 37.7507C42.3555 37.936 41.9407 37.9712 41.2336 37.9697C41.9403 37.9845 42.3544 38.0291 42.593 38.2196C42.5108 38.3596 42.3606 38.5186 42.1414 38.7275C42.3646 38.5222 42.5337 38.3816 42.6811 38.3066C42.8745 38.5397 42.9111 38.9374 42.9098 39.6151C42.925 38.9376 42.9715 38.5412 43.1704 38.3121C43.3162 38.3904 43.4819 38.5351 43.7004 38.745C43.4867 38.5304 43.3396 38.3685 43.2612 38.2272C43.5046 38.042 43.9192 38.0067 44.6261 38.0082C43.9192 37.994 43.5057 37.9495 43.2671 37.7584C43.3488 37.6188 43.4993 37.4597 43.7185 37.2507C43.4955 37.4557 43.3264 37.5966 43.1785 37.6713C42.9849 37.4384 42.9483 37.0403 42.9497 36.3633Z" fill="white"/>
<path opacity="0.2" d="M2.24179 73.2148C2.22659 73.8919 2.18032 74.2889 1.9814 74.5176C1.83557 74.4389 1.66991 74.2942 1.4516 74.0841C1.66572 74.2988 1.81221 74.4606 1.89086 74.6023C1.64766 74.7875 1.23285 74.8228 0.525711 74.8213C1.23241 74.8361 1.64655 74.8807 1.88513 75.0711C1.80296 75.2112 1.65272 75.3702 1.43353 75.579C1.65669 75.3738 1.82588 75.2331 1.97325 75.1581C2.16667 75.3913 2.20324 75.7889 2.20191 76.4666C2.21711 75.7892 2.26359 75.3928 2.46252 75.1636C2.60835 75.242 2.77401 75.3866 2.99254 75.5966C2.77886 75.382 2.6317 75.22 2.55328 75.0787C2.7967 74.8935 3.21129 74.8583 3.9182 74.8597C3.21129 74.8456 2.79781 74.801 2.55923 74.6099C2.64096 74.4703 2.79141 74.3113 3.0106 74.1022C2.78767 74.3073 2.61849 74.4482 2.47067 74.5229C2.27703 74.29 2.24046 73.8919 2.24179 73.2148Z" fill="white"/>
<path opacity="0.2" d="M19.2031 73.2148C19.1879 73.8919 19.1416 74.2889 18.9427 74.5176C18.7968 74.4389 18.6312 74.2942 18.4129 74.0841C18.627 74.2988 18.7735 74.4606 18.8521 74.6023C18.6089 74.7875 18.1941 74.8228 17.487 74.8213C18.1937 74.8361 18.6078 74.8807 18.8464 75.0711C18.7642 75.2112 18.614 75.3702 18.3948 75.579C18.618 75.3738 18.7872 75.2331 18.9345 75.1581C19.1279 75.3913 19.1645 75.7889 19.1632 76.4666C19.1784 75.7892 19.2249 75.3928 19.4238 75.1636C19.5696 75.242 19.7353 75.3866 19.9538 75.5966C19.7401 75.382 19.593 75.22 19.5146 75.0787C19.758 74.8935 20.1726 74.8583 20.8795 74.8597C20.1726 74.8456 19.7591 74.801 19.5205 74.6099C19.6022 74.4703 19.7527 74.3113 19.9719 74.1022C19.7489 74.3073 19.5798 74.4482 19.4319 74.5229C19.2383 74.29 19.2017 73.8919 19.2031 73.2148Z" fill="white"/>
<path opacity="0.2" d="M88.6702 5.08592C88.7128 4.5462 89.0582 4.21166 89.5673 4.12924C90.1292 4.0382 90.5105 4.34234 90.5639 4.89605C90.6198 5.47667 90.1938 5.75147 89.6892 5.84648C89.1001 5.95735 88.7956 5.60757 88.6702 5.08592Z" fill="#ECEDEE"/>
<path opacity="0.2" d="M2.49262 45.5337C1.97221 45.5232 1.6983 45.2258 1.66027 44.7863C1.62094 44.3324 1.89915 44.0039 2.37755 43.9565C2.96609 43.8981 3.32903 44.1915 3.31699 44.7732C3.3069 45.2582 2.924 45.4399 2.49262 45.5337Z" fill="#D3D4D5"/>
<path opacity="0.2" d="M74.8583 -0.492188C74.8209 1.17341 74.7071 2.1501 74.2177 2.71274C73.859 2.51896 73.4515 2.1631 72.9144 1.64617C73.4412 2.17453 73.8015 2.57247 73.995 2.92107C73.3967 3.37669 72.3763 3.46346 70.6367 3.45983C72.3752 3.49619 73.394 3.6058 73.9809 4.07441C73.7788 4.41886 73.4092 4.81006 72.87 5.32387C73.4189 4.81889 73.8351 4.4729 74.1977 4.28847C74.6735 4.86202 74.7635 5.84028 74.7602 7.50743C74.7976 5.84079 74.912 4.86566 75.4013 4.30198C75.7601 4.49472 76.1676 4.85059 76.7052 5.36699C76.1795 4.83916 75.8175 4.44068 75.6246 4.09312C76.2234 3.6375 77.2433 3.55075 78.9824 3.55438C77.2433 3.51957 76.2262 3.40995 75.6392 2.93978C75.8403 2.59637 76.2104 2.20518 76.7497 1.69085C76.2012 2.19531 75.785 2.54183 75.4214 2.72574C74.945 2.15271 74.8551 1.17341 74.8583 -0.492188Z" fill="white"/>
<path opacity="0.2" d="M198.27 26C198.232 27.6656 198.119 28.6423 197.629 29.2049C197.27 29.0111 196.863 28.6553 196.326 28.1384C196.853 28.6667 197.213 29.0647 197.406 29.4133C196.808 29.8689 195.788 29.9557 194.048 29.952C195.787 29.9884 196.805 30.098 197.392 30.5666C197.19 30.911 196.821 31.3022 196.281 31.8161C196.83 31.3111 197.247 30.9651 197.609 30.7807C198.085 31.3542 198.175 32.3325 198.172 33.9996C198.209 32.333 198.323 31.3578 198.813 30.7942C199.172 30.9869 199.579 31.3428 200.117 31.8592C199.591 31.3313 199.229 30.9329 199.036 30.5853C199.635 30.1297 200.655 30.0429 202.394 30.0466C200.655 30.0118 199.638 29.9021 199.051 29.432C199.252 29.0886 199.622 28.6974 200.161 28.183C199.613 28.6875 199.196 29.034 198.833 29.2179C198.356 28.6449 198.266 27.6656 198.27 26Z" fill="white"/>
<path opacity="0.2" d="M64.6783 74.3008C64.6409 75.9664 64.5271 76.9431 64.0377 77.5057C63.679 77.3119 63.2714 76.9561 62.7344 76.4391C63.2611 76.9675 63.6215 77.3654 63.815 77.714C63.2167 78.1697 62.1962 78.2564 60.4566 78.2528C62.1952 78.2892 63.214 78.3988 63.8009 78.8674C63.5988 79.2118 63.2292 79.603 62.6899 80.1168C63.2389 79.6119 63.6551 79.2659 64.0177 79.0814C64.4935 79.655 64.5835 80.6332 64.5802 82.3004C64.6176 80.6338 64.7319 79.6586 65.2213 79.0949C65.5801 79.2877 65.9876 79.6436 66.5252 80.16C65.9995 79.6321 65.6375 79.2337 65.4446 78.8861C66.0434 78.4305 67.0633 78.3437 68.8024 78.3474C67.0633 78.3125 66.0461 78.2029 65.4592 77.7327C65.6603 77.3893 66.0304 76.9981 66.5696 76.4838C66.0212 76.9883 65.605 77.3348 65.2414 77.5187C64.765 76.9457 64.675 75.9664 64.6783 74.3008Z" fill="white"/>
<path opacity="0.2" d="M100.872 37.0318C100.349 36.9196 100.161 36.6014 100.241 36.1446C100.311 35.7499 100.602 35.6048 100.999 35.6537C101.528 35.7189 101.686 36.0616 101.605 36.507C101.536 36.8864 101.227 37.0225 100.872 37.0318Z" fill="#E1E2E3"/>
<path opacity="0.2" d="M11.534 37.731C11.0114 37.6188 10.8228 37.3006 10.9033 36.8438C10.9729 36.4491 11.2642 36.304 11.6607 36.3529C12.1903 36.4181 12.348 36.7608 12.2669 37.2062C12.1978 37.5856 11.8885 37.7217 11.534 37.731Z" fill="#E1E2E3"/>
<path opacity="0.2" d="M39.6207 75.688C39.0981 75.5758 38.9096 75.2576 38.9901 74.8008C39.0597 74.4061 39.3509 74.261 39.7475 74.3099C40.277 74.3752 40.4347 74.7178 40.3537 75.1633C40.2845 75.5427 39.9753 75.6788 39.6207 75.688Z" fill="#E1E2E3"/>
<path opacity="0.2" d="M161.312 46.3872C160.79 46.2751 160.601 45.9569 160.682 45.5C160.751 45.1053 161.043 44.9602 161.439 45.0091C161.969 45.0744 162.126 45.4171 162.045 45.8625C161.976 46.2419 161.667 46.378 161.312 46.3872Z" fill="#E1E2E3"/>
<path opacity="0.2" d="M127.364 38.3798C127.348 38.8396 127.144 39.142 126.643 39.189C126.122 39.2378 125.837 38.9255 125.823 38.5021C125.812 38.1806 126.064 37.8686 126.459 37.822C126.903 37.7696 127.295 37.854 127.364 38.3798Z" fill="#F4F4F5"/>
<path opacity="0.2" d="M105.132 0.0611874C104.616 0.0724548 104.357 -0.220293 104.331 -0.671199C104.309 -1.06507 104.578 -1.27185 104.988 -1.28791C105.491 -1.3076 105.816 -1.07404 105.793 -0.592529C105.777 -0.254366 105.579 0.0495721 105.132 0.0611874Z" fill="#EBEBEC"/>
<path opacity="0.2" d="M65.5833 44.058C65.4628 44.612 65.1074 44.9126 64.5485 44.8281C63.9895 44.7437 63.7062 44.3361 63.8146 43.808C63.8994 43.395 64.2078 43.0883 64.7064 43.1431C65.2627 43.204 65.5685 43.5208 65.5833 44.058Z" fill="#EAEDED"/>
<path opacity="0.2" d="M193.947 6.07552C193.327 6.00812 193.007 5.60068 193 5.01081C192.992 4.38818 193.385 4.00378 194.002 4.00003C194.634 3.99613 195.036 4.44661 195 5.01784C194.966 5.54977 194.604 6.00472 193.947 6.07552Z" fill="#E5E5E7"/>
</g>
<rect x="0.5" y="0.5" width="216" height="128" rx="11.5" stroke="url(#paint0_linear_67_2334)"/>
</g>
<defs>
<linearGradient id="paint0_linear_67_2334" x1="7.82452" y1="2.6875" x2="188.543" y2="158.105" gradientUnits="userSpaceOnUse">
<stop stop-color="white" stop-opacity="0.2"/>
<stop offset="1" stop-color="white" stop-opacity="0"/>
</linearGradient>
<clipPath id="clip0_67_2334">
<rect width="208" height="129" rx="12" fill="white"/>
</clipPath>
<clipPath id="clip1_67_2334">
<rect width="217" height="129" rx="12" fill="white"/>
</clipPath>
</defs>
</svg>
