<svg width="133" height="61" viewBox="0 0 133 61" fill="none" xmlns="http://www.w3.org/2000/svg">
<path d="M13.2042 39.8157C11.7865 39.8157 9.63972 39.4107 9.63972 36.8183C9.63972 34.388 17.2143 19.4008 23.7357 12.1098C18.7535 13.2845 13.6093 16.6464 12.4346 22.8438C10.1663 22.2767 8.95112 20.5755 8.87011 18.4287C8.66758 12.1098 19.3206 7.89718 27.7458 7.89718C33.1331 7.89718 37.6697 9.63893 37.8317 13.649C37.8317 22.9248 28.1103 27.2589 19.7662 27.421C16.9308 32.5247 14.4599 37.5069 13.2042 39.8157ZM32.1204 14.3376C32.1204 13.568 31.7964 12.8389 31.1078 12.3528C28.7179 13.1224 25.3154 17.9426 22.0345 23.4109C26.8952 22.8438 32.1204 17.6591 32.1204 14.3376ZM39.1115 37.5879C37.7748 37.5879 33.6432 35.3196 33.6432 32.2006C33.6432 26.8539 44.5797 7.89718 45.1873 7.89718C46.0379 7.89718 48.9543 10.044 48.9543 11.5427C48.9543 12.8389 39.314 29.5273 39.5165 32.6057C39.557 33.1323 39.719 33.5778 40.0431 33.5778C43.4051 33.5778 47.5772 25.1526 47.5772 25.1526L50.6961 26.9349C49.1569 30.0943 45.3898 37.5879 39.1115 37.5879ZM61.5127 37.5879C60.4191 37.5879 57.3811 36.0487 56.3685 33.7804C54.4242 36.0487 52.3989 37.5879 50.5762 37.5879C49.3205 37.5879 45.2699 35.3196 45.3509 32.2006C45.4724 27.907 52.0344 16.2414 52.723 16.2414C53.5736 16.2414 56.49 18.3882 56.49 19.8869C56.49 21.1831 51.5078 28.5551 51.2243 32.6057C51.1837 33.1323 51.5078 33.5778 51.7508 33.5778C52.7635 33.5778 56.0444 28.6361 58.8393 24.059C60.7836 20.0084 63.0519 16.2414 63.457 16.2414C64.3076 16.2414 67.224 18.3882 67.224 19.8869C67.224 21.1831 62.2418 28.5551 61.9583 32.6057C61.9178 33.1323 62.2418 33.5778 62.4849 33.5778C65.8873 33.5778 70.0189 25.1526 70.0189 25.1526L73.0974 26.9754C71.5581 30.1348 67.7911 37.5879 61.5127 37.5879ZM94.7157 16.2414C98.2802 16.2414 101.075 18.1451 101.197 19.9274C101.278 21.0211 95.3233 33.6183 97.7537 33.6183C100.225 33.6183 104.154 27.0159 105.045 25.1121L108.164 26.8944C106.624 30.0943 102.938 37.5879 97.3891 37.5879C95.5664 37.5879 91.3132 35.5221 91.1917 32.2006C91.0702 29.0007 95.7689 19.8869 95.5258 19.8869C94.4322 19.8869 82.726 37.5879 82.726 37.5879H82.6855V37.6284C78.4324 37.6284 77.5818 35.4006 77.5818 35.4006C76.9742 32.4842 81.9969 22.0742 83.0096 19.9274C81.9159 19.9274 70.5743 36.6158 70.0072 37.5474L69.9667 37.5879C69.6832 37.5879 66.7668 36.4132 66.7668 33.6994C66.7668 30.8639 74.2198 16.2414 75.1514 16.2414C75.9211 16.2414 78.4729 17.9831 78.878 19.5223C80.4172 17.5781 81.6729 16.2819 82.1995 16.2819C85.4399 16.2819 88.5589 18.1856 88.6804 19.9679C88.7209 20.373 87.8298 22.7628 86.8171 25.5577C90.1386 20.778 93.7031 16.2414 94.7157 16.2414ZM98.1277 50.7118C97.8442 50.7118 94.9277 49.5371 94.9277 46.8232C94.9277 43.9878 109.348 16.2414 110.279 16.2414C111.09 16.2414 113.925 18.1856 114.046 19.8059C115.869 17.7401 117.692 16.2414 119.191 16.2414C120.73 16.2414 123.97 18.5097 124.011 19.8869C124.213 24.7071 121.419 37.5879 111.13 37.5879C109.591 37.5879 107.971 35.6436 106.877 34.1044C102.664 42.1651 98.1277 50.7118 98.1277 50.7118ZM108.376 31.35C108.376 31.35 109.915 33.5778 110.968 33.5778C114.208 33.5778 119.11 22.9653 118.988 19.8869C117.732 19.8869 112.912 23.3299 108.376 31.35Z" fill="url(#paint0_linear_70_2373)"/>
<g filter="url(#filter0_d_70_2373)">
<path d="M12.9739 39.6917C11.5562 39.6917 9.40942 39.2867 9.40942 36.6943C9.40942 34.264 16.984 19.2768 23.5054 11.9858C18.5232 13.1605 13.379 16.5224 12.2043 22.7198C9.93599 22.1527 8.72082 20.4515 8.63981 18.3047C8.43728 11.9858 19.0903 7.77319 27.5155 7.77319C32.9028 7.77319 37.4394 9.51493 37.6014 13.525C37.6014 22.8008 27.88 27.1349 19.5359 27.297C16.7005 32.4007 14.2296 37.3829 12.9739 39.6917ZM31.8901 14.2136C31.8901 13.444 31.5661 12.7149 30.8775 12.2288C28.4876 12.9984 25.0851 17.8186 21.8042 23.2869C26.6649 22.7198 31.8901 17.5351 31.8901 14.2136Z" fill="url(#paint1_linear_70_2373)"/>
<path d="M38.8812 37.4639C37.5445 37.4639 33.4129 35.1956 33.4129 32.0766C33.4129 26.7299 44.3494 7.77319 44.957 7.77319C45.8076 7.77319 48.7241 9.91999 48.7241 11.4187C48.7241 12.7149 39.0837 29.4033 39.2862 32.4817C39.3267 33.0083 39.4887 33.4538 39.8128 33.4538C43.1748 33.4538 47.3469 25.0286 47.3469 25.0286L50.4658 26.8109C48.9266 29.9703 45.1595 37.4639 38.8812 37.4639Z" fill="url(#paint2_linear_70_2373)"/>
<path d="M61.2824 37.4639C60.1888 37.4639 57.1508 35.9247 56.1382 33.6564C54.1939 35.9247 52.1686 37.4639 50.3459 37.4639C49.0902 37.4639 45.0396 35.1956 45.1206 32.0766C45.2421 27.783 51.8041 16.1174 52.4927 16.1174C53.3433 16.1174 56.2597 18.2642 56.2597 19.7629C56.2597 21.0591 51.2775 28.4311 50.994 32.4817C50.9535 33.0083 51.2775 33.4538 51.5205 33.4538C52.5332 33.4538 55.8141 28.5121 58.609 23.935C60.5533 19.8844 62.8216 16.1174 63.2267 16.1174C64.0773 16.1174 66.9937 18.2642 66.9937 19.7629C66.9937 21.0591 62.0115 28.4311 61.728 32.4817C61.6875 33.0083 62.0115 33.4538 62.2546 33.4538C65.657 33.4538 69.7886 25.0286 69.7886 25.0286L72.8671 26.8514C71.3279 30.0108 67.5608 37.4639 61.2824 37.4639Z" fill="url(#paint3_linear_70_2373)"/>
<path d="M94.4854 16.1174C98.05 16.1174 100.845 18.0211 100.966 19.8034C101.047 20.8971 95.093 33.4943 97.5234 33.4943C99.9942 33.4943 103.923 26.8919 104.814 24.9881L107.933 26.7704C106.394 29.9703 102.708 37.4639 97.1588 37.4639C95.3361 37.4639 91.083 35.3981 90.9614 32.0766C90.8399 28.8767 95.5386 19.7629 95.2956 19.7629C94.2019 19.7629 82.4957 37.4639 82.4957 37.4639H82.4552V37.5044C78.2021 37.5044 77.3515 35.2766 77.3515 35.2766C76.7439 32.3602 81.7666 21.9502 82.7793 19.8034C81.6856 19.8034 70.344 36.4918 69.7769 37.4234L69.7364 37.4639C69.4529 37.4639 66.5365 36.2892 66.5365 33.5754C66.5365 30.74 73.9895 16.1174 74.9212 16.1174C75.6908 16.1174 78.2426 17.8591 78.6477 19.3983C80.1869 17.4541 81.4426 16.1579 81.9692 16.1579C85.2096 16.1579 88.3286 18.0616 88.4501 19.8439C88.4906 20.249 87.5995 22.6388 86.5868 25.4337C89.9083 20.654 93.4728 16.1174 94.4854 16.1174Z" fill="url(#paint4_linear_70_2373)"/>
<path d="M97.8974 50.5878C97.6139 50.5878 94.6975 49.4131 94.6975 46.6992C94.6975 43.8638 109.118 16.1174 110.049 16.1174C110.859 16.1174 113.695 18.0616 113.816 19.6819C115.639 17.6161 117.462 16.1174 118.96 16.1174C120.5 16.1174 123.74 18.3857 123.781 19.7629C123.983 24.5831 121.188 37.4639 110.9 37.4639C109.361 37.4639 107.74 35.5196 106.647 33.9804C102.434 42.0411 97.8974 50.5878 97.8974 50.5878ZM108.145 31.226C108.145 31.226 109.685 33.4538 110.738 33.4538C113.978 33.4538 118.879 22.8413 118.758 19.7629C117.502 19.7629 112.682 23.2059 108.145 31.226Z" fill="url(#paint5_linear_70_2373)"/>
<path d="M45.1243 7.13647C45.2906 7.15831 45.4532 7.2092 45.595 7.26342C45.7955 7.34014 46.0096 7.44647 46.2258 7.57006C46.6589 7.81765 47.138 8.15791 47.5842 8.54467C48.0289 8.93008 48.4604 9.37805 48.7864 9.84643C49.1028 10.3011 49.3713 10.8494 49.3713 11.4187C49.3713 11.6301 49.2911 11.8741 49.2249 12.0564C49.1465 12.2721 49.0358 12.5357 48.9016 12.8347C48.6324 13.4345 48.251 14.2153 47.8 15.114C46.9032 16.9014 45.6901 19.233 44.5071 21.574C43.3155 23.9318 42.137 26.3327 41.2698 28.3318C40.8358 29.3321 40.4853 30.2207 40.2502 30.946C40.0062 31.6989 39.9165 32.1905 39.9329 32.4392C39.9411 32.543 39.9544 32.6362 39.9719 32.7146C39.9786 32.7443 39.9866 32.77 39.9934 32.7927C40.5484 32.7237 41.2191 32.3463 41.9709 31.6589C42.7839 30.9156 43.5896 29.9072 44.3088 28.8718C45.0249 27.841 45.6401 26.8066 46.0774 26.0281C46.2956 25.6396 46.469 25.3161 46.5872 25.0906C46.6462 24.9779 46.6916 24.8894 46.7219 24.8298C46.7371 24.8001 46.7486 24.7774 46.7561 24.7624C46.7598 24.7551 46.7621 24.7494 46.7639 24.7458C46.7648 24.7441 46.7655 24.7427 46.7659 24.7419L46.7668 24.741L46.8372 24.6287C46.8427 24.6216 46.8499 24.6159 46.8557 24.6091C47.2278 23.7939 47.6201 22.9797 48.0159 22.1951C48.8934 20.4552 49.7909 18.8465 50.5159 17.6677C50.8772 17.0802 51.2023 16.5884 51.4651 16.238C51.5948 16.0651 51.7214 15.9103 51.8381 15.7927C51.8956 15.7349 51.9668 15.6707 52.0471 15.616C52.1067 15.5754 52.2693 15.4696 52.4924 15.4695C52.7154 15.4695 52.9411 15.5349 53.1301 15.6072C53.3308 15.6839 53.5456 15.7901 53.762 15.9138C54.195 16.1614 54.6732 16.5017 55.1194 16.8884C55.5643 17.274 55.9964 17.7225 56.3225 18.1912C56.6388 18.6457 56.9073 19.1933 56.9075 19.7624C56.9075 20.0686 56.7779 20.4368 56.6448 20.7615C56.4983 21.1187 56.2925 21.5463 56.0549 22.0183C55.5914 22.9392 54.9315 24.1648 54.3098 25.3835C53.6724 26.6332 53.0339 27.9535 52.5383 29.2058C52.0388 30.468 51.7038 31.6148 51.6399 32.5271V32.531C51.6358 32.5847 51.6408 32.6365 51.6506 32.6833C51.7923 32.5716 51.9723 32.403 52.1868 32.1706C52.6534 31.665 53.2278 30.9291 53.8704 30.033C55.1483 28.2507 56.6515 25.8967 58.0422 23.6199C59.0173 21.5911 60.0724 19.634 60.9387 18.1765C61.3734 17.4452 61.7664 16.8289 62.0823 16.3904C62.2386 16.1734 62.3875 15.9838 62.5208 15.8425C62.5861 15.7732 62.6631 15.6984 62.7483 15.6365C62.8079 15.5932 62.9843 15.4695 63.2268 15.4695L63.3938 15.4812C63.5601 15.503 63.7227 15.5529 63.8645 15.6072C64.065 15.6839 64.2791 15.7902 64.4954 15.9138C64.9285 16.1614 65.4075 16.5016 65.8538 16.8884C66.2987 17.274 66.7308 17.7225 67.0569 18.1912C67.3731 18.6457 67.6417 19.1934 67.6418 19.7624C67.6418 20.0686 67.5113 20.4368 67.3782 20.7615C67.2317 21.1186 67.0268 21.5464 66.7893 22.0183C66.3258 22.9392 65.6658 24.1649 65.0442 25.3835C64.4068 26.6332 63.7683 27.9535 63.2727 29.2058C62.7732 30.468 62.4381 31.6148 62.3743 32.5271V32.6199C62.3803 32.6867 62.3996 32.7466 62.4221 32.7947C62.9899 32.7308 63.6716 32.3516 64.4309 31.6589C65.2451 30.9161 66.0484 29.9077 66.7649 28.8728C67.4783 27.8423 68.0906 26.8084 68.5247 26.03C68.7287 25.6642 68.8919 25.3555 69.0081 25.1326C69.2671 24.5859 69.532 24.0379 69.7991 23.4968C70.7935 21.4826 71.8196 19.5513 72.6594 18.1189C73.0781 17.4048 73.458 16.8019 73.7688 16.3718C73.9225 16.1592 74.0721 15.9706 74.2112 15.8288C74.28 15.7587 74.3618 15.6828 74.4543 15.6208C74.5312 15.5694 74.6987 15.4695 74.9211 15.4695C75.1233 15.4695 75.3271 15.523 75.5002 15.5837C75.6829 15.6478 75.8776 15.7373 76.0745 15.8415C76.4682 16.0501 76.9056 16.3388 77.3254 16.6746C77.7454 17.0105 78.1625 17.4045 78.5061 17.8279C78.6032 17.9475 78.6962 18.0728 78.7834 18.2019C79.3127 17.5638 79.8022 17.0143 80.2317 16.5886C80.5298 16.2931 80.8137 16.0425 81.0715 15.8611C81.2971 15.7023 81.6195 15.5106 81.969 15.5105L82.2952 15.5163C83.9196 15.5751 85.4912 16.0662 86.7053 16.7732C87.3536 17.1507 87.9194 17.6004 88.3381 18.0994C88.7496 18.5897 89.0452 19.162 89.093 19.779H89.095C89.1107 19.9367 89.0807 20.1043 89.0579 20.2156C89.0306 20.3487 88.9897 20.5046 88.9407 20.6746C88.8842 20.8704 88.8111 21.0973 88.7278 21.3503C89.4908 20.3312 90.2274 19.386 90.9026 18.5701C91.6255 17.6965 92.2894 16.957 92.8459 16.4304C93.1231 16.1682 93.3886 15.9443 93.6331 15.782C93.8509 15.6373 94.1554 15.4695 94.4856 15.4695L94.8381 15.4753C96.5901 15.5336 98.1647 16.0217 99.3518 16.7371C100.585 17.4805 101.529 18.5565 101.613 19.7556V19.8972C101.604 20.0406 101.57 20.1852 101.542 20.2966C101.498 20.4716 101.434 20.6802 101.357 20.9109C101.202 21.3739 100.98 21.9671 100.726 22.6345C100.213 23.9786 99.5582 25.6426 98.9739 27.2771C98.3871 28.9185 97.8896 30.4834 97.6848 31.6238C97.5801 32.207 97.567 32.6023 97.6116 32.823C97.6126 32.8282 97.6144 32.8329 97.6155 32.8376C97.9761 32.7974 98.4952 32.5308 99.1497 31.949C99.8323 31.3421 100.553 30.4966 101.241 29.5691C102.149 28.3469 102.97 27.0222 103.548 26.0007C104.684 23.8409 105.766 21.8337 106.693 20.1804C107.436 18.8543 108.082 17.7472 108.574 16.9685C108.819 16.5814 109.034 16.2624 109.209 16.0349C109.295 15.9232 109.385 15.8156 109.474 15.7302C109.518 15.6882 109.577 15.6361 109.649 15.5906C109.706 15.554 109.851 15.4695 110.049 15.4695C110.261 15.4695 110.477 15.5292 110.659 15.5955C110.853 15.6657 111.061 15.763 111.272 15.8777C111.694 16.1072 112.163 16.4254 112.606 16.7947C113.047 17.1631 113.48 17.5966 113.816 18.0622C113.904 18.1855 113.988 18.3157 114.066 18.4499C114.754 17.7301 115.448 17.0963 116.129 16.6013C117.041 15.9389 118.007 15.4695 118.96 15.4695C119.48 15.4695 120.07 15.6535 120.623 15.9021C121.19 16.157 121.78 16.508 122.316 16.9011C122.85 17.2931 123.351 17.7418 123.728 18.2009C124.085 18.6359 124.408 19.174 124.427 19.7361H124.428C124.533 22.2493 123.865 26.7868 121.851 30.7165C119.828 34.6621 116.377 38.1121 110.9 38.1121C109.874 38.112 108.927 37.4785 108.166 36.7751C107.651 36.2994 107.169 35.7413 106.741 35.1931C104.785 38.9315 102.801 42.7016 101.265 45.6091C100.434 47.1815 99.7356 48.5021 99.2444 49.4294C98.9988 49.8931 98.8054 50.259 98.6731 50.5085C98.607 50.6332 98.556 50.7291 98.5217 50.7937C98.5046 50.8259 98.4914 50.8505 98.4827 50.8669C98.4784 50.875 98.4751 50.8814 98.4729 50.8855C98.4719 50.8875 98.4705 50.8894 98.47 50.8904V50.8913C98.3576 51.103 98.1373 51.235 97.8977 51.2351C97.7966 51.2351 97.7043 51.2136 97.6575 51.2019C97.5965 51.1866 97.5305 51.1666 97.4641 51.1433C97.3305 51.0965 97.1703 51.0297 96.9944 50.9441C96.6425 50.7728 96.2057 50.5143 95.7776 50.1599C94.9237 49.4529 94.05 48.3141 94.05 46.699C94.0501 46.4209 94.1315 46.0689 94.2385 45.7058C94.3512 45.3236 94.5129 44.8618 94.7141 44.3386C95.117 43.291 95.6897 41.9608 96.3752 40.4558C96.714 39.7121 97.0812 38.9238 97.47 38.1033C97.3669 38.108 97.2629 38.1121 97.1584 38.1121C96.0721 38.1119 94.424 37.5263 93.0461 36.5437C91.6608 35.5557 90.3853 34.0472 90.3137 32.1013L90.3118 31.9236C90.318 31.0179 90.6112 29.8289 91.0051 28.6042C91.4332 27.2736 92.0099 25.8146 92.5774 24.4685C92.7511 24.0565 92.9245 23.6536 93.093 23.2673C91.8962 24.8714 90.4431 26.9232 89.0178 28.9822C87.4886 31.1913 85.9937 33.4014 84.8801 35.0593C84.3235 35.8881 83.8621 36.5789 83.5403 37.0622C83.3795 37.3038 83.2531 37.4934 83.1672 37.6228C83.1243 37.6875 83.0917 37.7379 83.0696 37.7712C83.0586 37.7878 83.0498 37.7999 83.0442 37.8083C83.0414 37.8125 83.0397 37.816 83.0383 37.8181C83.0377 37.819 83.0367 37.8195 83.0364 37.8201V37.821C83.0047 37.8689 82.966 37.9109 82.9241 37.948C82.806 38.0727 82.6406 38.1521 82.4553 38.1521C80.2098 38.1521 78.7922 37.5615 77.9202 36.9089C77.488 36.5855 77.2016 36.2555 77.0198 35.9958C76.9293 35.8666 76.8652 35.755 76.8215 35.6706C76.7997 35.6285 76.783 35.5926 76.7708 35.5652C76.7646 35.5514 76.7591 35.5397 76.7551 35.53C76.7532 35.5253 76.7517 35.521 76.7502 35.5173C76.7496 35.5156 76.7489 35.5139 76.7483 35.5124L76.7473 35.5095L76.7463 35.5085L77.3518 35.2761L76.7463 35.5076C76.7341 35.4755 76.7241 35.4425 76.717 35.4089C76.6185 34.9358 76.6427 34.3671 76.7278 33.7712C76.8144 33.1649 76.9728 32.4804 77.178 31.7546C77.5884 30.3026 78.1998 28.6355 78.8567 27.0085C79.3455 25.7978 79.8635 24.6013 80.3459 23.5203C79.2301 24.9885 77.9137 26.7992 76.6086 28.6384C73.5631 32.9306 70.5999 37.3176 70.3303 37.7605C70.3035 37.8045 70.2711 37.8452 70.2346 37.8816L70.1946 37.9216C70.0731 38.0431 69.9083 38.112 69.7366 38.1121C69.6353 38.1121 69.5431 38.0896 69.4963 38.0779C69.4354 38.0626 69.3694 38.0425 69.303 38.0193C69.1694 37.9725 69.0091 37.9057 68.8333 37.8201C68.4814 37.6487 68.0455 37.3902 67.6174 37.0359C67.3329 36.8004 67.0472 36.5163 66.7913 36.1833C65.2336 37.3298 63.4009 38.112 61.2825 38.1121C60.8879 38.1121 60.403 37.9814 59.9211 37.7908C59.4235 37.5939 58.8709 37.3093 58.3254 36.9529C57.4922 36.4083 56.6328 35.6647 56.0188 34.7595C55.2145 35.6274 54.3911 36.3779 53.5618 36.9451C52.5266 37.653 51.4373 38.112 50.3459 38.1121C49.8863 38.1121 49.2919 37.9202 48.7122 37.6472C48.1096 37.3634 47.4421 36.953 46.8196 36.4392C46.3836 36.0794 45.9552 35.654 45.5852 35.1726C43.7967 36.8461 41.5695 38.1121 38.8811 38.1121C38.4074 38.112 37.7967 37.9237 37.1946 37.6501C36.572 37.3672 35.884 36.9585 35.2415 36.446C33.9802 35.4401 32.765 33.9272 32.7649 32.0769C32.7649 31.3162 32.9562 30.3651 33.262 29.3162C33.5707 28.2569 34.0091 27.0549 34.5315 25.7781C35.5765 23.224 36.9722 20.3339 38.3821 17.6208C39.7926 14.9066 41.2235 12.3593 42.3411 10.4871C42.8992 9.55199 43.3834 8.77818 43.7502 8.2351C43.9322 7.96569 44.0929 7.74156 44.2239 7.57983C44.2878 7.50089 44.3575 7.42022 44.428 7.35424C44.4624 7.32201 44.5131 7.27836 44.5754 7.23901C44.6205 7.21054 44.7612 7.12572 44.9573 7.12572L45.1243 7.13647ZM118.028 20.6931C117.886 20.7693 117.728 20.8617 117.557 20.9714C116.902 21.3914 116.073 22.0438 115.132 22.9529C113.309 24.7134 111.092 27.4124 108.917 31.1824C109.07 31.3807 109.282 31.6408 109.522 31.8992C109.765 32.1618 110.023 32.4058 110.265 32.5788C110.525 32.7649 110.681 32.8063 110.738 32.8064C110.968 32.8064 111.274 32.7095 111.658 32.4529C112.039 32.1989 112.454 31.817 112.888 31.321C113.756 30.3293 114.642 28.9536 115.437 27.4587C116.229 25.9678 116.918 24.3831 117.4 22.989C117.709 22.0944 117.919 21.3104 118.028 20.6931ZM30.7551 12.9763C30.3517 13.171 29.8812 13.5053 29.3499 13.991C28.6793 14.6039 27.9521 15.4197 27.1848 16.3962C25.8923 18.0413 24.5146 20.1063 23.135 22.3455C24.9459 21.8052 26.7608 20.6763 28.2288 19.3093C29.1479 18.4534 29.9108 17.524 30.4397 16.6247C30.9736 15.7169 31.2424 14.8853 31.2424 14.2136C31.2424 13.7428 31.0827 13.3119 30.7551 12.9763ZM38.2493 13.5251C38.2492 18.4285 35.6651 22.0169 32.051 24.3718C28.5605 26.6461 24.0851 27.7902 19.925 27.9314C17.1524 32.9435 14.8056 37.6795 13.5432 40.0007C13.4298 40.2092 13.2112 40.3396 12.9739 40.3396C12.2248 40.3396 11.1925 40.2362 10.3284 39.7214C9.40995 39.1742 8.76196 38.2083 8.76196 36.6941C8.76202 36.2737 8.91357 35.6836 9.13306 35.0281C9.36108 34.347 9.69059 33.515 10.1008 32.5749C10.9222 30.6929 12.0823 28.3458 13.4436 25.8523C15.7778 21.5767 18.7285 16.828 21.6116 13.2283C17.5149 14.7241 13.7938 17.8142 12.8411 22.8406C12.8079 23.0157 12.7031 23.1693 12.553 23.2654C12.4029 23.3613 12.22 23.3916 12.0471 23.3484C10.7868 23.0333 9.7858 22.3927 9.09106 21.5037C8.39836 20.6172 8.03733 19.5185 7.99243 18.3288V18.3259C7.87821 14.7621 10.8133 11.9569 14.553 10.0896C18.3408 8.1983 23.2109 7.12572 27.5159 7.12572C30.2648 7.12577 32.8601 7.56793 34.8137 8.56908C36.7902 9.58206 38.1554 11.2009 38.2483 13.4988C38.2486 13.5075 38.2493 13.5164 38.2493 13.5251Z" stroke="white" stroke-width="1.29553" stroke-linejoin="round"/>
</g>
<defs>
<filter id="filter0_d_70_2373" x="2.86102e-06" y="3.8743e-06" width="132.427" height="60.0883" filterUnits="userSpaceOnUse" color-interpolation-filters="sRGB">
<feFlood flood-opacity="0" result="BackgroundImageFix"/>
<feColorMatrix in="SourceAlpha" type="matrix" values="0 0 0 0 0 0 0 0 0 0 0 0 0 0 0 0 0 0 127 0" result="hardAlpha"/>
<feOffset dy="0.863687"/>
<feGaussianBlur stdDeviation="3.67067"/>
<feComposite in2="hardAlpha" operator="out"/>
<feColorMatrix type="matrix" values="0 0 0 0 0.819608 0 0 0 0 0.282353 0 0 0 0 1 0 0 0 1 0"/>
<feBlend mode="normal" in2="BackgroundImageFix" result="effect1_dropShadow_70_2373"/>
<feBlend mode="normal" in="SourceGraphic" in2="effect1_dropShadow_70_2373" result="shape"/>
</filter>
<linearGradient id="paint0_linear_70_2373" x1="66.4674" y1="7.9274" x2="83.413" y2="38.0653" gradientUnits="userSpaceOnUse">
<stop stop-color="#BF00FF"/>
<stop offset="1" stop-color="#E186FF"/>
</linearGradient>
<linearGradient id="paint1_linear_70_2373" x1="66.2405" y1="7.91351" x2="82.9647" y2="37.8397" gradientUnits="userSpaceOnUse">
<stop stop-color="#BF00FF"/>
<stop offset="1" stop-color="#E186FF"/>
</linearGradient>
<linearGradient id="paint2_linear_70_2373" x1="66.2405" y1="7.91351" x2="82.9647" y2="37.8397" gradientUnits="userSpaceOnUse">
<stop stop-color="#BF00FF"/>
<stop offset="1" stop-color="#E186FF"/>
</linearGradient>
<linearGradient id="paint3_linear_70_2373" x1="66.2405" y1="7.91351" x2="82.9647" y2="37.8397" gradientUnits="userSpaceOnUse">
<stop stop-color="#BF00FF"/>
<stop offset="1" stop-color="#E186FF"/>
</linearGradient>
<linearGradient id="paint4_linear_70_2373" x1="66.2405" y1="7.91351" x2="82.9647" y2="37.8397" gradientUnits="userSpaceOnUse">
<stop stop-color="#BF00FF"/>
<stop offset="1" stop-color="#E186FF"/>
</linearGradient>
<linearGradient id="paint5_linear_70_2373" x1="66.2405" y1="7.91351" x2="82.9647" y2="37.8397" gradientUnits="userSpaceOnUse">
<stop stop-color="#BF00FF"/>
<stop offset="1" stop-color="#E186FF"/>
</linearGradient>
</defs>
</svg>
