<svg width="20" height="20" viewBox="0 0 20 20" fill="none" xmlns="http://www.w3.org/2000/svg">
<path d="M13.125 8.74688C13.125 9.61217 12.8684 10.458 12.3877 11.1775C11.907 11.897 11.2237 12.4577 10.4243 12.7889C9.62484 13.12 8.74517 13.2066 7.8965 13.0378C7.04784 12.869 6.26829 12.4523 5.65643 11.8405C5.04458 11.2286 4.6279 10.4491 4.45909 9.6004C4.29028 8.75173 4.37692 7.87207 4.70805 7.07264C5.03918 6.27321 5.59994 5.58993 6.3194 5.1092C7.03887 4.62847 7.88473 4.37188 8.75002 4.37188C9.91035 4.37188 11.0231 4.83282 11.8436 5.65329C12.6641 6.47376 13.125 7.58656 13.125 8.74688ZM17.9422 17.9391C17.8842 17.9972 17.8152 18.0433 17.7394 18.0747C17.6635 18.1062 17.5822 18.1224 17.5 18.1224C17.4179 18.1224 17.3366 18.1062 17.2607 18.0747C17.1848 18.0433 17.1159 17.9972 17.0578 17.9391L13.1469 14.0273C11.7868 15.1588 10.0429 15.7225 8.27788 15.601C6.51286 15.4795 4.86262 14.6822 3.67041 13.375C2.4782 12.0679 1.83581 10.3514 1.87685 8.58268C1.9179 6.81396 2.63923 5.12914 3.89079 3.87868C5.14236 2.62822 6.82781 1.90839 8.59657 1.8689C10.3653 1.82942 12.0812 2.47333 13.3873 3.66669C14.6935 4.86005 15.4893 6.511 15.6092 8.27613C15.7291 10.0413 15.164 11.7847 14.0313 13.1438L17.9422 17.0547C18.0003 17.1127 18.0464 17.1817 18.0779 17.2575C18.1093 17.3334 18.1255 17.4147 18.1255 17.4969C18.1255 17.579 18.1093 17.6603 18.0779 17.7362C18.0464 17.8121 18.0003 17.881 17.9422 17.9391ZM8.75002 14.3719C9.86254 14.3719 10.9501 14.042 11.8751 13.4239C12.8001 12.8058 13.5211 11.9273 13.9468 10.8995C14.3726 9.87164 14.484 8.74064 14.2669 7.6495C14.0499 6.55835 13.5142 5.55608 12.7275 4.7694C11.9408 3.98273 10.9385 3.44701 9.84741 3.22996C8.75626 3.01292 7.62526 3.12432 6.59743 3.55006C5.5696 3.9758 4.69109 4.69677 4.07301 5.6218C3.45492 6.54682 3.12502 7.63436 3.12502 8.74688C3.12668 10.2382 3.71984 11.668 4.77438 12.7225C5.82891 13.7771 7.25869 14.3702 8.75002 14.3719Z" fill="#D1D5DB"/>
</svg>
