<svg width="50" height="49" viewBox="0 0 50 49" fill="none" xmlns="http://www.w3.org/2000/svg">
<g filter="url(#filter0_dd_2_2376)">
<path d="M33 27.7509H28.2938L27.6291 25.5009H33C33.1989 25.5009 33.3897 25.4219 33.5303 25.2813C33.671 25.1406 33.75 24.9499 33.75 24.7509V24.3759C33.7501 23.1335 33.5033 21.9035 33.0239 20.7573C32.5444 19.6111 31.8419 18.5716 30.9572 17.6993C30.0725 16.827 29.0233 16.1392 27.8704 15.676C26.7176 15.2128 25.4842 14.9833 24.2419 15.0009C19.1475 15.0731 15 19.2769 15 24.3759C14.9999 25.9021 15.3723 27.4051 16.085 28.7546C16.7976 30.1041 17.8289 31.2593 19.0894 32.1197C19.2142 32.2052 19.3619 32.2509 19.5131 32.2509H24C24.2246 32.251 24.4464 32.2005 24.6489 32.1034C24.8514 32.0062 25.0295 31.8648 25.1701 31.6896C25.3106 31.5144 25.4101 31.3099 25.461 31.0911C25.5119 30.8723 25.5131 30.6449 25.4644 30.4256C25.4606 30.4085 25.4559 30.3916 25.4503 30.375L25.1166 29.25H27.1725L28.1841 32.6747C28.277 32.9849 28.4673 33.2571 28.7267 33.4509C28.9862 33.6447 29.3011 33.7499 29.625 33.7509H33C33.3978 33.7509 33.7794 33.5929 34.0607 33.3116C34.342 33.0303 34.5 32.6488 34.5 32.2509V29.2509C34.5 28.8531 34.342 28.4716 34.0607 28.1903C33.7794 27.909 33.3978 27.7509 33 27.7509ZM20.625 29.2509C20.4025 29.2509 20.185 29.185 20 29.0613C19.815 28.9377 19.6708 28.762 19.5856 28.5565C19.5005 28.3509 19.4782 28.1247 19.5216 27.9065C19.565 27.6882 19.6722 27.4878 19.8295 27.3305C19.9868 27.1731 20.1873 27.066 20.4055 27.0226C20.6238 26.9792 20.85 27.0014 21.0555 27.0866C21.2611 27.1717 21.4368 27.3159 21.5604 27.5009C21.684 27.6859 21.75 27.9034 21.75 28.1259C21.75 28.4243 21.6315 28.7105 21.4205 28.9214C21.2095 29.1324 20.9234 29.2509 20.625 29.2509ZM24.6713 27.7509L24 25.5009H26.0625L26.7272 27.7509H24.6713ZM33 32.2509H29.625L28.7381 29.2509H33V32.2509Z" fill="url(#paint0_linear_2_2376)"/>
</g>
<defs>
<filter id="filter0_dd_2_2376" x="0" y="0" width="49.5" height="48.751" filterUnits="userSpaceOnUse" color-interpolation-filters="sRGB">
<feFlood flood-opacity="0" result="BackgroundImageFix"/>
<feColorMatrix in="SourceAlpha" type="matrix" values="0 0 0 0 0 0 0 0 0 0 0 0 0 0 0 0 0 0 127 0" result="hardAlpha"/>
<feOffset dy="1.2"/>
<feGaussianBlur stdDeviation="4.8"/>
<feComposite in2="hardAlpha" operator="out"/>
<feColorMatrix type="matrix" values="0 0 0 0 0.74902 0 0 0 0 0 0 0 0 0 1 0 0 0 0.29 0"/>
<feBlend mode="normal" in2="BackgroundImageFix" result="effect1_dropShadow_2_2376"/>
<feColorMatrix in="SourceAlpha" type="matrix" values="0 0 0 0 0 0 0 0 0 0 0 0 0 0 0 0 0 0 127 0" result="hardAlpha"/>
<feOffset/>
<feGaussianBlur stdDeviation="7.5"/>
<feComposite in2="hardAlpha" operator="out"/>
<feColorMatrix type="matrix" values="0 0 0 0 0.638827 0 0 0 0 0 0 0 0 0 0.852884 0 0 0 1 0"/>
<feBlend mode="normal" in2="effect1_dropShadow_2_2376" result="effect2_dropShadow_2_2376"/>
<feBlend mode="normal" in="SourceGraphic" in2="effect2_dropShadow_2_2376" result="shape"/>
</filter>
<linearGradient id="paint0_linear_2_2376" x1="21.8514" y1="15" x2="21.8514" y2="33.7509" gradientUnits="userSpaceOnUse">
<stop stop-color="#E597FF"/>
<stop offset="1" stop-color="#BF00FF"/>
</linearGradient>
</defs>
</svg>
