<svg width="79" height="40" viewBox="0 0 79 40" fill="none" xmlns="http://www.w3.org/2000/svg">
<g clip-path="url(#clip0_104_798)">
<path d="M0 11C0 4.92487 4.92487 0 11 0H68C74.0751 0 79 4.92487 79 11V29C79 35.0751 74.0751 40 68 40H11C4.92487 40 0 35.0751 0 29V11Z" fill="#09090B" fill-opacity="0.7"/>
<path d="M80.8951 5.21022C80.8059 4.68425 80.5553 4.19904 80.178 3.82181C79.8008 3.44458 79.3156 3.19399 78.7896 3.10476C76.2599 2.67585 71.4935 2.47976 67.9873 5.98757C64.481 9.49538 64.6756 14.261 65.1045 16.7899C65.1939 17.3164 65.4451 17.802 65.8231 18.1793C66.2011 18.5566 66.6872 18.8069 67.2138 18.8954C68.0999 19.0465 68.997 19.1233 69.8959 19.1251C72.4029 19.1251 75.5248 18.5001 78.0123 16.0126C81.5193 12.5063 81.324 7.73913 80.8951 5.21022ZM67.4185 17.6641C67.1481 17.6181 66.8986 17.4892 66.7046 17.2952C66.5106 17.1013 66.3817 16.8518 66.3357 16.5813C66.1213 15.3724 66.0659 14.1406 66.1709 12.9173L71.0826 17.829C69.8593 17.934 68.6275 17.8786 67.4185 17.6641ZM75.9404 8.94304L74.8201 10.0626L75.3154 10.5579C75.3772 10.615 75.4268 10.684 75.4612 10.7608C75.4956 10.8376 75.5142 10.9205 75.5158 11.0046C75.5174 11.0888 75.5021 11.1724 75.4706 11.2504C75.4391 11.3284 75.3922 11.3993 75.3327 11.4588C75.2732 11.5182 75.2022 11.5651 75.1242 11.5965C75.0461 11.6279 74.9625 11.6432 74.8784 11.6415C74.7943 11.6398 74.7114 11.6212 74.6346 11.5867C74.5579 11.5521 74.4889 11.5025 74.4318 11.4407L73.9373 10.9462L72.9459 11.9376L73.4412 12.4329C73.503 12.49 73.5526 12.559 73.5872 12.6357C73.6217 12.7124 73.6403 12.7953 73.642 12.8795C73.6437 12.9636 73.6284 13.0472 73.597 13.1252C73.5656 13.2033 73.5187 13.2742 73.4593 13.3338C73.3998 13.3933 73.3289 13.4402 73.2509 13.4716C73.1729 13.5031 73.0893 13.5185 73.0051 13.5169C72.921 13.5153 72.8381 13.4967 72.7613 13.4623C72.6846 13.4278 72.6155 13.3782 72.5584 13.3165L72.0623 12.8204L70.942 13.9407C70.8845 14.0012 70.8155 14.0495 70.7391 14.0829C70.6626 14.1163 70.5803 14.1341 70.4969 14.1352C70.4134 14.1362 70.3307 14.1206 70.2534 14.0892C70.1761 14.0577 70.1059 14.0111 70.0469 13.9522C69.9879 13.8932 69.9413 13.823 69.9099 13.7457C69.8785 13.6684 69.8628 13.5856 69.8639 13.5022C69.865 13.4188 69.8827 13.3364 69.9161 13.26C69.9495 13.1835 69.9979 13.1146 70.0584 13.0571L71.1795 11.9376L70.6842 11.4423C70.5746 11.3236 70.5152 11.1671 70.5184 11.0057C70.5217 10.8442 70.5873 10.6902 70.7015 10.5761C70.8158 10.4619 70.9698 10.3964 71.1313 10.3933C71.2928 10.3902 71.4492 10.4497 71.5678 10.5594L72.0631 11.0548L73.0537 10.0626L72.5584 9.56726C72.4487 9.4487 72.3891 9.29229 72.3922 9.1308C72.3953 8.96932 72.4608 8.8153 72.575 8.70104C72.6892 8.58678 72.8431 8.52115 73.0046 8.51791C73.1661 8.51467 73.3225 8.57407 73.4412 8.68366L73.9373 9.17976L75.0576 8.05944C75.1151 7.99896 75.184 7.9506 75.2605 7.9172C75.3369 7.8838 75.4193 7.86604 75.5027 7.86498C75.5861 7.86391 75.6689 7.87955 75.7462 7.91098C75.8235 7.94241 75.8937 7.98899 75.9527 8.04798C76.0116 8.10697 76.0582 8.17717 76.0897 8.25445C76.1211 8.33172 76.1367 8.41451 76.1357 8.49793C76.1346 8.58134 76.1168 8.6637 76.0834 8.74015C76.05 8.81659 76.0017 8.88558 75.9412 8.94304H75.9404ZM79.8287 9.08288L74.917 4.17116C75.2888 4.13679 75.6763 4.11726 76.0818 4.11726C76.9198 4.12021 77.7561 4.19338 78.5818 4.33601C78.8521 4.38215 79.1014 4.51112 79.2953 4.7051C79.4891 4.89907 79.6179 5.14847 79.6638 5.41882C79.8783 6.62777 79.9337 7.85956 79.8287 9.08288Z" fill="white" fill-opacity="0.06"/>
<path d="M68.1641 6.16406C71.5814 2.74525 76.2406 2.92642 78.748 3.35156C79.2228 3.43216 79.6605 3.65853 80.001 3.99902C80.3415 4.33955 80.5679 4.77718 80.6484 5.25195C81.0736 7.75858 81.254 12.4185 77.8359 15.8359C75.412 18.2599 72.3643 18.874 69.8955 18.874C69.0109 18.8723 68.1279 18.7981 67.2559 18.6494L67.2549 18.6484C66.7796 18.5685 66.3411 18.3425 66 18.002C65.7015 17.704 65.4899 17.3317 65.3877 16.9248L65.3506 16.748C64.9255 14.2414 64.7466 9.58302 68.1641 6.16406ZM65.9219 12.8955C65.8151 14.1395 65.8711 15.3926 66.0889 16.6221V16.623C66.1436 16.9446 66.2977 17.241 66.5283 17.4717C66.7585 17.7018 67.0542 17.8542 67.375 17.9092V17.9102C68.6052 18.1284 69.8587 18.1849 71.1035 18.0781L71.6396 18.0322L65.9678 12.3604L65.9219 12.8955ZM75.499 7.61523C75.3824 7.61679 75.267 7.64178 75.1602 7.68848C75.0552 7.73438 74.9603 7.80036 74.8809 7.88281L73.9375 8.82617L73.6182 8.50684L73.6104 8.5C73.4444 8.34682 73.2258 8.26316 73 8.26758C72.774 8.27211 72.5582 8.36452 72.3984 8.52441C72.2386 8.68437 72.1469 8.89991 72.1426 9.12598C72.1382 9.35206 72.2214 9.57133 72.375 9.7373L72.7002 10.0625L72.0625 10.7002L71.7451 10.3828L71.7373 10.376L71.6729 10.3213C71.5168 10.2027 71.3245 10.1399 71.127 10.1436C70.9009 10.1479 70.6844 10.2396 70.5244 10.3994C70.3646 10.5592 70.2731 10.7751 70.2686 11.001C70.2641 11.2267 70.347 11.4454 70.5 11.6113V11.6123L70.5078 11.6191L70.8252 11.9365L69.8857 12.876C69.8012 12.9564 69.7342 13.0533 69.6875 13.1602C69.6408 13.2672 69.6158 13.3823 69.6143 13.499C69.6128 13.6158 69.6347 13.7317 69.6787 13.8398C69.7227 13.948 69.7876 14.0464 69.8701 14.1289C69.9527 14.2115 70.0511 14.2763 70.1592 14.3203C70.2673 14.3643 70.3832 14.3863 70.5 14.3848C70.6166 14.3833 70.732 14.3591 70.8389 14.3125C70.9441 14.2665 71.0395 14.1999 71.1191 14.1172L72.0625 13.1738L72.3818 13.4932C72.4605 13.5763 72.5547 13.6436 72.6592 13.6904C72.7665 13.7385 72.8824 13.7643 73 13.7666C73.1178 13.7689 73.2355 13.7472 73.3447 13.7031C73.4537 13.6591 73.5527 13.5938 73.6357 13.5107C73.719 13.4274 73.7851 13.328 73.8291 13.2188C73.8731 13.1095 73.894 12.9918 73.8916 12.874C73.8892 12.7564 73.8636 12.6405 73.8154 12.5332C73.7684 12.4286 73.7006 12.3345 73.6172 12.2559H73.6182L73.2998 11.9375L73.9375 11.2998L74.2549 11.6172C74.3335 11.7005 74.4277 11.7675 74.5322 11.8145C74.6395 11.8627 74.7554 11.8892 74.873 11.8916C74.9908 11.894 75.1085 11.8721 75.2178 11.8281C75.3269 11.7842 75.4265 11.7189 75.5098 11.6357C75.593 11.5525 75.6581 11.4529 75.7021 11.3438C75.7462 11.2346 75.7679 11.1177 75.7656 11C75.7634 10.8822 75.7377 10.7657 75.6895 10.6582C75.6533 10.5777 75.6051 10.5034 75.5469 10.4375L75.4854 10.374L75.1738 10.0625L76.1162 9.11914C76.199 9.03948 76.2665 8.94516 76.3125 8.83984C76.3592 8.73291 76.3842 8.61764 76.3857 8.50098C76.3872 8.38425 76.3653 8.2683 76.3213 8.16016C76.2773 8.05207 76.2124 7.95363 76.1299 7.87109C76.0474 7.78863 75.9488 7.72369 75.8408 7.67969C75.7326 7.63568 75.6158 7.61374 75.499 7.61523ZM76.082 3.86719C75.6685 3.86719 75.2727 3.88683 74.8936 3.92188L74.3633 3.97168L74.7402 4.34766L80.0322 9.63965L80.0781 9.10449C80.1716 8.01519 80.1399 6.91905 79.9844 5.83789L79.9102 5.375C79.8552 5.05432 79.7017 4.75848 79.4717 4.52832C79.2701 4.32664 79.0183 4.18348 78.7432 4.11426L78.624 4.08984C77.7847 3.9449 76.9347 3.87021 76.083 3.86719H76.082Z" stroke="white" stroke-opacity="0.15" stroke-width="0.5"/>
<path d="M44.875 31.5008H40.9531L40.3992 29.6258H44.875C45.0408 29.6258 45.1997 29.5599 45.3169 29.4427C45.4342 29.3255 45.5 29.1665 45.5 29.0008V28.6883C45.5001 27.6529 45.2944 26.6279 44.8949 25.6727C44.4953 24.7176 43.9099 23.8513 43.1727 23.1244C42.4354 22.3975 41.5611 21.8244 40.6004 21.4383C39.6397 21.0523 38.6118 20.8611 37.5766 20.8758C33.3313 20.9359 29.875 24.4391 29.875 28.6883C29.8749 29.9601 30.1852 31.2126 30.7791 32.3372C31.373 33.4618 32.2324 34.4244 33.2828 35.1414C33.3868 35.2126 33.5099 35.2508 33.6359 35.2508H37.375C37.5622 35.2508 37.747 35.2088 37.9157 35.1278C38.0845 35.0468 38.2329 34.929 38.3501 34.783C38.4672 34.637 38.5501 34.4665 38.5925 34.2842C38.6349 34.1019 38.6359 33.9124 38.5953 33.7297C38.5921 33.7154 38.5882 33.7014 38.5836 33.6875L38.3055 32.75H40.0187L40.8617 35.6039C40.9392 35.8625 41.0977 36.0892 41.3139 36.2507C41.5302 36.4122 41.7926 36.4999 42.0625 36.5008H44.875C45.2065 36.5008 45.5245 36.3691 45.7589 36.1347C45.9933 35.9003 46.125 35.5823 46.125 35.2508V32.7508C46.125 32.4193 45.9933 32.1013 45.7589 31.8669C45.5245 31.6325 45.2065 31.5008 44.875 31.5008ZM34.5625 32.7508C34.3771 32.7508 34.1958 32.6958 34.0417 32.5928C33.8875 32.4898 33.7673 32.3434 33.6964 32.1721C33.6254 32.0007 33.6068 31.8122 33.643 31.6304C33.6792 31.4485 33.7685 31.2815 33.8996 31.1504C34.0307 31.0193 34.1977 30.93 34.3796 30.8938C34.5615 30.8576 34.75 30.8762 34.9213 30.9472C35.0926 31.0181 35.239 31.1383 35.342 31.2924C35.445 31.4466 35.5 31.6279 35.5 31.8133C35.5 32.0619 35.4012 32.3004 35.2254 32.4762C35.0496 32.652 34.8111 32.7508 34.5625 32.7508ZM37.9344 31.5008L37.375 29.6258H39.0938L39.6477 31.5008H37.9344ZM44.875 35.2508H42.0625L41.3234 32.7508H44.875V35.2508Z" fill="white" fill-opacity="0.06"/>
<path d="M37.5801 21.126C38.5821 21.1117 39.577 21.2964 40.5068 21.6699C41.4368 22.0436 42.2834 22.5991 42.9971 23.3027C43.7107 24.0064 44.2773 24.845 44.6641 25.7695C45.0508 26.6941 45.2501 27.6863 45.25 28.6885V29.001C45.25 29.1002 45.2107 29.1954 45.1406 29.2656C45.0703 29.336 44.9745 29.376 44.875 29.376H40.0645L40.1592 29.6963L40.7129 31.5713L40.7666 31.751H44.875C45.1402 31.751 45.3945 31.8564 45.582 32.0439C45.7695 32.2315 45.875 32.4858 45.875 32.751V35.251C45.875 35.5161 45.7695 35.7705 45.582 35.958C45.3945 36.1455 45.1402 36.251 44.875 36.251H42.0635C41.8474 36.2503 41.637 36.18 41.4639 36.0508C41.3339 35.9537 41.2292 35.8272 41.1592 35.6826L41.1016 35.5322L40.2588 32.6787L40.2061 32.5H37.9707L38.0654 32.8213L38.3438 33.7588L38.3467 33.7666C38.3486 33.7723 38.3503 33.7783 38.3516 33.7842C38.384 33.9303 38.3826 34.0818 38.3486 34.2275C38.3147 34.3734 38.249 34.5102 38.1553 34.627C38.0616 34.7437 37.9426 34.8376 37.8076 34.9023C37.6726 34.9671 37.5247 35.001 37.375 35.001H33.6357C33.5602 35.0009 33.4862 34.9782 33.4238 34.9355V34.9346C32.4072 34.2405 31.5748 33.3092 31 32.2207C30.4252 31.1322 30.1249 29.9195 30.125 28.6885C30.125 24.576 33.4714 21.1842 37.5801 21.126ZM41.084 32.8213L41.8232 35.3213L41.876 35.501H45.125V32.501H40.9893L41.084 32.8213ZM34.3311 30.6484C34.1007 30.6943 33.8887 30.8076 33.7227 30.9736C33.5566 31.1397 33.4433 31.3517 33.3975 31.582C33.3518 31.8122 33.376 32.0507 33.4658 32.2676C33.5557 32.4845 33.7072 32.6703 33.9023 32.8008C34.0976 32.9313 34.3276 33.001 34.5625 33.001C34.8774 33.001 35.1797 32.876 35.4023 32.6533C35.625 32.4307 35.75 32.1284 35.75 31.8135C35.75 31.5786 35.6803 31.3486 35.5498 31.1533C35.4193 30.9581 35.2335 30.8057 35.0166 30.7158C34.7998 30.6261 34.5612 30.6027 34.3311 30.6484ZM37.1357 29.6973L37.6943 31.5723L37.748 31.751H39.9824L39.8877 31.4297L39.334 29.5547L39.2803 29.376H37.0391L37.1357 29.6973Z" stroke="white" stroke-opacity="0.15" stroke-width="0.5"/>
<path d="M2.9409 3.0159C3.15908 1.21404 3.97486 -0.462716 5.25792 -1.74648C6.54098 -3.03025 8.21728 -3.84696 10.019 -4.06614C10.0617 -4.07123 10.1049 -4.06747 10.1461 -4.05509C10.1872 -4.04271 10.2254 -4.02198 10.2582 -3.99419C10.2909 -3.96641 10.3176 -3.93216 10.3366 -3.89359C10.3555 -3.85502 10.3663 -3.81297 10.3682 -3.77004C10.4069 -2.82311 10.2489 -1.87843 9.90432 -0.99558C9.55971 -0.112727 9.03594 0.689158 8.36602 1.35952C7.69609 2.02988 6.89455 2.55418 6.01193 2.89937C5.1293 3.24455 4.18473 3.40313 3.23777 3.36511C3.19478 3.36327 3.15263 3.35256 3.11397 3.33366C3.07531 3.31477 3.04097 3.28809 3.0131 3.25531C2.98523 3.22252 2.96443 3.18434 2.95201 3.14314C2.93958 3.10194 2.9358 3.05862 2.9409 3.0159ZM18.7643 4.63308C18.6768 4.63308 18.5901 4.62761 18.5026 4.62761C17.5772 4.62643 16.6611 4.81242 15.8094 5.17442C14.9577 5.53641 14.1881 6.06693 13.5467 6.73405C12.9054 7.40117 12.4056 8.19112 12.0774 9.05639C11.7492 9.92166 11.5994 10.8444 11.637 11.769C11.6389 11.8119 11.6497 11.854 11.6687 11.8926C11.6876 11.9311 11.7143 11.9654 11.7471 11.9932C11.7798 12.021 11.818 12.0417 11.8591 12.0541C11.9003 12.0664 11.9435 12.0702 11.9862 12.0651C13.7881 11.8459 15.4645 11.0291 16.7475 9.74516C18.0306 8.46123 18.8463 6.7843 19.0643 4.9823C19.0694 4.93932 19.0656 4.89575 19.053 4.85435C19.0403 4.81294 19.0193 4.77461 18.9911 4.74178C18.9629 4.70895 18.9281 4.68233 18.8891 4.66362C18.8501 4.64491 18.8076 4.63451 18.7643 4.63308ZM12.7573 5.75418C13.5101 4.99738 14.4054 4.39738 15.3916 3.98891C16.3778 3.58044 17.4352 3.3716 18.5026 3.37449C18.5807 3.37449 18.6636 3.37449 18.744 3.37449C18.7888 3.3761 18.8335 3.36805 18.8749 3.35088C18.9163 3.33372 18.9535 3.30784 18.9841 3.27501C19.0146 3.24218 19.0377 3.20316 19.0518 3.16061C19.0659 3.11806 19.0707 3.07297 19.0659 3.0284C18.8505 1.21993 18.0332 -0.463567 16.7455 -1.75145C15.4577 -3.03934 13.7743 -3.85679 11.9659 -4.07239C11.9213 -4.07723 11.8762 -4.07244 11.8337 -4.05832C11.7911 -4.0442 11.7521 -4.02108 11.7193 -3.99055C11.6865 -3.96002 11.6606 -3.92278 11.6434 -3.88136C11.6262 -3.83994 11.6182 -3.79532 11.6198 -3.75051C11.6553 -2.64259 11.4632 -1.53916 11.0552 -0.508478C10.6472 0.522206 10.0321 1.45822 9.24793 2.24168C8.49542 2.99904 7.60016 3.59962 6.61397 4.00863C5.62778 4.41764 4.57025 4.62697 3.50261 4.62449C3.42449 4.62449 3.34168 4.62449 3.26121 4.62449C3.2164 4.62288 3.17178 4.63093 3.13036 4.6481C3.08894 4.66526 3.0517 4.69114 3.02117 4.72397C2.99063 4.7568 2.96752 4.79581 2.9534 4.83837C2.93928 4.88092 2.93448 4.92601 2.93933 4.97058C3.15473 6.77905 3.972 8.46255 5.25974 9.75043C6.54748 11.0383 8.23089 11.8558 10.0393 12.0714C10.0839 12.0762 10.129 12.0714 10.1715 12.0573C10.2141 12.0432 10.2531 12.0201 10.2859 11.9895C10.3188 11.959 10.3447 11.9218 10.3618 11.8803C10.379 11.8389 10.387 11.7943 10.3854 11.7495C10.3495 10.641 10.5414 9.53703 10.9494 8.50577C11.3574 7.47452 11.9727 6.53799 12.7573 5.75418Z" fill="white" fill-opacity="0.06"/>
<path d="M11.9365 -3.82422C13.6892 -3.61522 15.3203 -2.82239 16.5684 -1.57422C17.8163 -0.326091 18.6086 1.30502 18.8174 3.05762C18.818 3.06582 18.817 3.07421 18.8145 3.08203C18.8116 3.09046 18.8068 3.09798 18.8008 3.10449C18.7947 3.11104 18.7876 3.11668 18.7793 3.12012C18.771 3.12355 18.7619 3.12532 18.7529 3.125V3.12402H18.5029C17.4026 3.1211 16.3125 3.33674 15.2959 3.75781C14.2796 4.17878 13.3569 4.79732 12.5811 5.57715C11.7723 6.38515 11.1374 7.35099 10.7168 8.41406C10.2963 9.47705 10.0987 10.6153 10.1357 11.7578V11.7588C10.136 11.7675 10.1341 11.7761 10.1309 11.7842C10.1274 11.7925 10.1218 11.8005 10.1152 11.8066C10.1087 11.8126 10.1011 11.8175 10.0928 11.8203C10.0846 11.823 10.0759 11.8231 10.0674 11.8223C8.31525 11.613 6.68422 10.8211 5.43652 9.57324C4.26664 8.40315 3.49705 6.89639 3.2334 5.26855L3.1875 4.94141C3.18689 4.9332 3.18783 4.92482 3.19043 4.91699C3.19322 4.90859 3.19811 4.90104 3.2041 4.89453C3.21012 4.88806 3.21745 4.88234 3.22559 4.87891C3.23378 4.87551 3.24309 4.87375 3.25195 4.87402H3.50293V4.87305C4.60333 4.87548 5.6935 4.66082 6.70996 4.23926C7.72625 3.81772 8.64825 3.19835 9.42383 2.41797L9.4248 2.41895C10.2331 1.61138 10.8675 0.646372 11.2881 -0.416016C11.7086 -1.4785 11.9067 -2.61669 11.8701 -3.75879V-3.75977L11.874 -3.78613C11.8775 -3.7943 11.8832 -3.80158 11.8896 -3.80762C11.8961 -3.81362 11.9037 -3.81848 11.9121 -3.82129C11.9199 -3.82387 11.9284 -3.8248 11.9365 -3.82422ZM18.502 4.87793H18.5029C18.542 4.87794 18.5819 4.8785 18.626 4.87988C18.6663 4.88115 18.7106 4.88168 18.7559 4.88184V4.88281C18.7645 4.8831 18.7734 4.88493 18.7812 4.88867C18.789 4.8924 18.7961 4.89777 18.8018 4.9043C18.8073 4.91073 18.8109 4.91866 18.8135 4.92676C18.8159 4.93483 18.8173 4.94377 18.8164 4.95215C18.6051 6.69865 17.8139 8.32398 16.5703 9.56836C15.327 10.8124 13.7029 11.6038 11.957 11.8164L11.9316 11.8145C11.9236 11.812 11.9157 11.8081 11.9092 11.8027C11.9026 11.7972 11.8964 11.7899 11.8926 11.7822H11.8936L11.8867 11.7578C11.8506 10.8673 11.9955 9.97885 12.3115 9.14551C12.6277 8.31182 13.1086 7.55002 13.7266 6.90723C14.3446 6.26441 15.0866 5.7531 15.9072 5.4043C16.7278 5.05556 17.6104 4.87683 18.502 4.87793ZM10.0488 -3.81836C10.0573 -3.81934 10.0661 -3.81788 10.0742 -3.81543C10.0824 -3.81295 10.0902 -3.80922 10.0967 -3.80371C10.1032 -3.79816 10.1085 -3.79091 10.1123 -3.7832C10.116 -3.77559 10.1178 -3.76726 10.1182 -3.75879C10.1552 -2.8469 10.0037 -1.93712 9.67188 -1.08691C9.33987 -0.236331 8.83486 0.536727 8.18945 1.18262C7.54394 1.82855 6.77136 2.33439 5.9209 2.66699C5.17681 2.95798 4.38688 3.11085 3.58984 3.12012L3.24805 3.11523C3.23962 3.11481 3.23122 3.11308 3.22363 3.10938C3.2159 3.10559 3.2087 3.10031 3.20312 3.09375C3.19763 3.08728 3.1939 3.0794 3.19141 3.07129L3.18945 3.0459C3.40091 1.29971 4.19122 -0.325167 5.43457 -1.56934C6.60048 -2.73589 8.10158 -3.50499 9.72363 -3.77148L10.0488 -3.81836Z" stroke="white" stroke-opacity="0.15" stroke-width="0.5"/>
<path d="M42.2836 -4.12033C42.2332 -4.15151 42.1927 -4.19638 42.1668 -4.24971C42.141 -4.30303 42.1308 -4.36262 42.1375 -4.4215C42.1442 -4.48039 42.1675 -4.53615 42.2048 -4.58229C42.242 -4.62842 42.2915 -4.66302 42.3477 -4.68205C43.4875 -5.07479 44.7005 -5.2088 45.8986 -5.07434C47.0967 -4.93988 48.2498 -4.54034 49.2742 -3.9047C49.3113 -3.8813 49.3431 -3.85034 49.3675 -3.81383C49.3918 -3.77733 49.4082 -3.7361 49.4156 -3.69284C49.423 -3.64958 49.4212 -3.60525 49.4103 -3.56274C49.3994 -3.52023 49.3796 -3.48049 49.3523 -3.44611C48.4478 -2.29019 47.3385 -1.31038 46.0797 -0.555485C45.0629 -1.98341 43.7725 -3.19513 42.2836 -4.12033ZM44.9641 0.0312333C43.823 -1.52572 42.3219 -2.78317 40.5891 -3.63361C40.5394 -3.65771 40.4843 -3.66803 40.4293 -3.66349C40.3743 -3.65896 40.3216 -3.63973 40.2766 -3.60783C38.8737 -2.60439 37.8251 -1.18211 37.2813 0.454671C37.2676 0.496523 37.2629 0.54079 37.2676 0.584571C37.2722 0.628351 37.286 0.670658 37.3082 0.708719C37.3303 0.746779 37.3602 0.779735 37.396 0.805426C37.4317 0.831116 37.4725 0.848963 37.5156 0.857796C38.3311 1.03357 39.1627 1.12312 39.9969 1.12498C41.7124 1.12591 43.4076 0.752656 44.9641 0.0312333ZM53.0734 2.11639C52.8748 0.304301 52.0714 -1.38802 50.793 -2.68752C50.7618 -2.71918 50.7242 -2.74384 50.6828 -2.75983C50.6413 -2.77583 50.5969 -2.78281 50.5526 -2.78029C50.5082 -2.77778 50.4649 -2.76583 50.4255 -2.74526C50.3862 -2.72468 50.3516 -2.69594 50.3242 -2.66095C49.3354 -1.40128 48.1259 -0.331817 46.7547 0.495296C47.1831 1.23746 47.5376 2.01985 47.8133 2.83123C48.9326 2.5278 50.0872 2.37438 51.2469 2.37498C51.7428 2.375 52.2384 2.40291 52.7313 2.45858C52.7771 2.46315 52.8234 2.45753 52.8669 2.4421C52.9103 2.42667 52.9498 2.40183 52.9825 2.36935C53.0152 2.33687 53.0403 2.29756 53.056 2.25423C53.0718 2.2109 53.0777 2.16463 53.0734 2.11873V2.11639ZM48.1586 4.03045C48.3902 5.01549 48.5068 6.02403 48.5063 7.03592C48.5058 8.00446 48.3981 8.96998 48.1852 9.91483C48.1715 9.9727 48.1747 10.0333 48.1943 10.0894C48.2139 10.1455 48.2491 10.1949 48.2958 10.2317C48.3424 10.2685 48.3986 10.2913 48.4578 10.2973C48.5169 10.3033 48.5766 10.2923 48.6297 10.2656C49.8146 9.6712 50.8365 8.79654 51.6067 7.71758C52.3769 6.63861 52.8721 5.38796 53.0492 4.0742C53.0546 4.03323 53.0518 3.99161 53.0409 3.95174C53.0301 3.91187 53.0114 3.87454 52.9861 3.84192C52.9607 3.8093 52.9292 3.78203 52.8932 3.76169C52.8572 3.74135 52.8176 3.72834 52.7766 3.72342C51.2316 3.52458 49.6627 3.63075 48.1586 4.03592V4.03045ZM46.6242 3.21405C46.3723 2.47532 46.0481 1.76327 45.6563 1.08826C43.8903 1.93664 41.956 2.37643 39.9969 2.37498C39.0811 2.37503 38.1678 2.27946 37.2719 2.08983C37.2286 2.08071 37.184 2.08086 37.1408 2.09027C37.0976 2.09968 37.057 2.11813 37.0215 2.14441C36.986 2.17069 36.9564 2.20421 36.9348 2.24274C36.9132 2.28127 36.9 2.32395 36.8961 2.36795C36.8799 2.57629 36.8716 2.78696 36.8711 2.99998C36.8707 4.11253 37.0994 5.21324 37.5429 6.23354C37.9865 7.25385 38.6354 8.17188 39.4492 8.93045C39.4835 8.96192 39.5245 8.98531 39.569 8.99892C39.6135 9.01254 39.6605 9.01603 39.7066 9.00914C39.7527 9.00225 39.7966 8.98515 39.8352 8.9591C39.8738 8.93305 39.9061 8.89871 39.9297 8.85858C41.4545 6.27119 43.8159 4.28098 46.6242 3.21639V3.21405ZM40.9102 9.66014C40.8896 9.69599 40.8764 9.73556 40.8713 9.77656C40.8661 9.81756 40.8692 9.85917 40.8802 9.89898C40.8912 9.9388 40.9101 9.97603 40.9356 10.0085C40.9611 10.041 40.9928 10.0681 41.0289 10.0883C42.6628 11.0043 44.5632 11.327 46.4078 11.0015C46.4627 10.992 46.5139 10.9676 46.556 10.9312C46.5982 10.8947 46.6296 10.8475 46.6469 10.7945C47.0498 9.58313 47.2556 8.3149 47.2563 7.03827C47.2564 6.15875 47.1584 5.28197 46.9641 4.4242C44.4041 5.42161 42.2662 7.27073 40.9102 9.66014Z" fill="white" fill-opacity="0.06"/>
<path d="M46.7812 4.76953C46.9304 5.51631 47.006 6.27607 47.0059 7.03809C47.0052 8.28795 46.8037 9.52984 46.4092 10.7158V10.7168C46.406 10.7266 46.4003 10.7354 46.3926 10.7422C46.3849 10.7489 46.3753 10.7531 46.3652 10.7549H46.3643C44.5765 11.0703 42.7348 10.7579 41.1514 9.87012H41.1504C41.1433 9.86612 41.1369 9.86086 41.1318 9.85449C41.1267 9.84799 41.1233 9.83999 41.1211 9.83203C41.1189 9.82411 41.1181 9.81578 41.1191 9.80762C41.1202 9.79943 41.1229 9.79134 41.127 9.78418L41.1279 9.7832C42.4068 7.52982 44.3967 5.76873 46.7812 4.76953ZM48.4561 4.2207C49.8576 3.87384 51.3117 3.7872 52.7451 3.97168H52.7471C52.7552 3.97269 52.7634 3.97547 52.7705 3.97949C52.7775 3.98354 52.7841 3.9887 52.7891 3.99512C52.7941 4.00163 52.7976 4.00961 52.7998 4.01758C52.8018 4.0252 52.8027 4.03319 52.8018 4.04102C52.63 5.31434 52.1498 6.52649 51.4033 7.57227C50.75 8.48745 49.9098 9.25091 48.9404 9.81348L48.5176 10.042C48.5071 10.0473 48.4951 10.0499 48.4834 10.0488C48.4716 10.0476 48.4595 10.0425 48.4502 10.0352C48.4411 10.0278 48.4345 10.0179 48.4307 10.0068C48.4268 9.99562 48.426 9.98324 48.4287 9.97168V9.96973C48.6457 9.00691 48.7554 8.02309 48.7559 7.03613C48.7564 6.0894 48.6551 5.14579 48.4561 4.2207ZM45.5488 1.41309C45.8445 1.9462 46.0973 2.50133 46.3057 3.07422C43.5456 4.17899 41.2257 6.1662 39.7139 8.73145C39.7091 8.73947 39.703 8.74674 39.6953 8.75195C39.6877 8.75709 39.679 8.76031 39.6699 8.76172C39.6609 8.76307 39.6514 8.76238 39.6426 8.75977L39.6182 8.74609C38.8302 8.01121 38.202 7.12196 37.7725 6.13379C37.3427 5.14524 37.1208 4.07889 37.1211 3.00098C37.1216 2.79488 37.13 2.59087 37.1455 2.38965C37.1463 2.38101 37.1491 2.37281 37.1533 2.36523C37.1576 2.35766 37.163 2.35091 37.1699 2.3457C37.177 2.34045 37.1857 2.33684 37.1943 2.33496C37.2027 2.33316 37.2113 2.3323 37.2197 2.33398C38.1327 2.52722 39.0639 2.62505 39.9971 2.625C41.9144 2.62636 43.8077 2.21158 45.5488 1.41309ZM50.5664 -2.53027C50.5753 -2.53078 50.5845 -2.52957 50.5928 -2.52637C50.601 -2.52317 50.609 -2.51803 50.6152 -2.51172C51.8496 -1.25679 52.6273 0.376011 52.8232 2.125V2.12988L52.8242 2.1416C52.8251 2.15075 52.8244 2.1603 52.8213 2.16895C52.8181 2.17761 52.8132 2.18589 52.8066 2.19238C52.8001 2.19882 52.7918 2.20297 52.7832 2.20605C52.7747 2.20906 52.7658 2.20978 52.7568 2.20898C52.2556 2.15247 51.7515 2.12503 51.2471 2.125C50.1423 2.12442 49.0422 2.26182 47.9717 2.53223C47.7297 1.85854 47.4346 1.20537 47.0879 0.579102C48.4003 -0.245057 49.5629 -1.28685 50.5205 -2.50684H50.5215C50.5269 -2.51364 50.5334 -2.51938 50.541 -2.52344C50.5488 -2.5275 50.5577 -2.52973 50.5664 -2.53027ZM40.4502 -3.41406C40.4598 -3.4148 40.4697 -3.41409 40.4785 -3.41016V-3.40918C42.0818 -2.62233 43.4822 -1.47909 44.5742 -0.0693359C43.1296 0.553446 41.5724 0.875847 39.9971 0.875L39.6914 0.870117C38.9776 0.849765 38.2669 0.763851 37.5684 0.613281H37.5654C37.557 0.611511 37.549 0.607567 37.542 0.602539C37.5348 0.597403 37.5288 0.590614 37.5244 0.583008C37.5201 0.575512 37.5176 0.567206 37.5166 0.558594C37.5157 0.550173 37.5161 0.541287 37.5186 0.533203C38.0457 -1.05323 39.0622 -2.43168 40.4219 -3.4043L40.4209 -3.40527C40.4292 -3.41107 40.4401 -3.41323 40.4502 -3.41406ZM42.4287 -4.44531C43.5335 -4.82596 44.7099 -4.95649 45.8711 -4.82617C47.0313 -4.69591 48.1484 -4.30954 49.1406 -3.69434V-3.69336C49.148 -3.68868 49.1543 -3.68211 49.1592 -3.6748C49.164 -3.66751 49.1675 -3.65904 49.1689 -3.65039C49.1703 -3.64192 49.1701 -3.63333 49.168 -3.625C49.1658 -3.6165 49.1617 -3.60844 49.1562 -3.60156L49.1553 -3.60059C48.3164 -2.5286 47.2961 -1.6136 46.1436 -0.891602C45.13 -2.26337 43.8659 -3.43203 42.416 -4.33301H42.415C42.4051 -4.33919 42.3968 -4.34788 42.3916 -4.3584C42.3864 -4.36906 42.3844 -4.38178 42.3857 -4.39355C42.3871 -4.4052 42.392 -4.41665 42.3994 -4.42578C42.4068 -4.43481 42.4167 -4.44154 42.4277 -4.44531H42.4287Z" stroke="white" stroke-opacity="0.15" stroke-width="0.5"/>
<path d="M66.6018 36.1852L67.546 35.2374L63.762 31.4533L62.8174 32.4008L66.6018 36.1852ZM68.687 34.0997C69.1026 33.6833 69.3359 33.1191 69.3359 32.5309C69.3359 31.9427 69.1026 31.3785 68.687 30.9621L68.0405 30.3156C67.6241 29.9 67.0599 29.6667 66.4717 29.6667C65.8835 29.6667 65.3193 29.9 64.9029 30.3156L64.2088 31.0062L67.9928 34.7909L68.687 34.0997ZM64.1644 38.207L65.1819 39.2245L66.2276 36.7079L65.5906 36.0709L64.1644 38.207ZM60.1586 44.1971C60.0009 44.4386 59.9229 44.7234 59.9354 45.0115C59.9479 45.2996 60.0503 45.5766 60.2282 45.8035C60.4062 46.0304 60.6508 46.1959 60.9276 46.2767C61.2044 46.3575 61.4996 46.3496 61.7717 46.2541C61.9507 46.1895 62.1143 46.0881 62.2518 45.9565C62.3894 45.8249 62.4979 45.666 62.5704 45.4899L64.9154 39.8549L63.803 38.7425L60.1586 44.1971ZM62.2533 37.1928L57.4709 41.9786C57.3304 42.1174 57.2208 42.2842 57.1493 42.4683C57.0777 42.6523 57.0458 42.8494 57.0556 43.0466C57.0702 43.3465 57.1787 43.6342 57.3656 43.8691C57.5526 44.1041 57.8086 44.2744 58.0975 44.3559C58.3865 44.4375 58.6938 44.4263 58.976 44.3238C59.2582 44.2213 59.5011 44.0328 59.6704 43.7849L63.3467 38.2862L62.2533 37.1928ZM65.1342 35.6145L64.4844 34.965L62.7034 36.746L63.7081 37.7507L65.1342 35.6145ZM61.2519 35.2945L62.2566 36.2992L64.0376 34.5179L63.3881 33.8684L61.2519 35.2945ZM62.9317 33.412L62.2947 32.775L59.7781 33.8207L60.7956 34.8382L62.9317 33.412ZM60.7161 35.6559L55.2174 39.3322C53.5445 40.5589 55.4967 42.9341 57.024 41.5317L61.8065 36.746L60.7161 35.6559ZM52.8214 38.3338C52.9113 38.5046 53.0359 38.6547 53.1873 38.7743C53.3387 38.894 53.5134 38.9807 53.7003 39.0288C53.8872 39.0768 54.0821 39.0852 54.2725 39.0534C54.4628 39.0216 54.6444 38.9503 54.8055 38.844L60.2598 35.1993L59.1474 34.0869L53.5124 36.4322C53.3374 36.5061 53.1796 36.6153 53.0488 36.753C52.918 36.8906 52.817 37.0538 52.7522 37.2323C52.6873 37.4108 52.66 37.6008 52.672 37.7903C52.684 37.9799 52.7347 38.1649 52.8214 38.3338Z" fill="white" fill-opacity="0.06"/>
<path d="M64.6816 31.0078L65.1377 30.5518H65.1387C65.4925 30.1986 65.9718 30 66.4717 30C66.9716 30 67.4508 30.1986 67.8047 30.5518L68.4521 31.1982C68.8048 31.552 69.0029 32.0317 69.0029 32.5312C69.0028 33.0306 68.8046 33.5096 68.4521 33.8633L67.9941 34.3203L64.6816 31.0078ZM63.2891 32.4014L63.7627 31.9258L67.0752 35.2383L66.6016 35.7139L63.2891 32.4014ZM60.3672 33.9385L62.2168 33.1689L62.4092 33.3613L60.8379 34.4092L60.3672 33.9385ZM61.7754 35.3467L63.3457 34.2979L63.5664 34.5186L62.2568 35.8281L61.7754 35.3467ZM54.2178 38.7246C54.0733 38.7488 53.925 38.7425 53.7832 38.7061C53.6415 38.6696 53.5093 38.6034 53.3945 38.5127C53.2808 38.4228 53.1862 38.3106 53.1182 38.1826V38.1816C53.0525 38.0539 53.014 37.9135 53.0049 37.7695C52.9958 37.6258 53.0163 37.4811 53.0654 37.3457C53.1146 37.2105 53.191 37.0867 53.29 36.9824C53.3889 36.8784 53.5085 36.7962 53.6406 36.7402L59.0703 34.4805L59.7373 35.1475L54.6211 38.5674C54.4993 38.6475 54.3616 38.7005 54.2178 38.7246ZM63.1748 36.7461L64.4844 35.4365L64.7061 35.6582L63.6572 37.2285L63.1748 36.7461ZM56.793 41.292C55.6134 42.3644 54.1235 40.5507 55.4131 39.6025L60.6738 36.085L61.3359 36.7461L56.793 41.292ZM64.5938 38.165L65.6426 36.5947L65.835 36.7861L65.0664 38.6367L64.5938 38.165ZM58.8623 44.0107C58.6458 44.0893 58.4101 44.0977 58.1885 44.0352C57.9667 43.9726 57.7694 43.8414 57.626 43.6611C57.5187 43.5261 57.445 43.3685 57.4102 43.2012L57.3887 43.0303C57.3812 42.8799 57.4054 42.7292 57.46 42.5889C57.5145 42.4487 57.5981 42.3216 57.7051 42.2158L57.707 42.2139L62.2539 37.665L62.918 38.3281L59.3955 43.5967C59.2656 43.787 59.0789 43.9321 58.8623 44.0107ZM61.6602 45.9404C61.4543 46.0124 61.2309 46.018 61.0215 45.957C60.8115 45.8957 60.6252 45.7698 60.4902 45.5977C60.3554 45.4256 60.278 45.2155 60.2686 44.9971C60.2591 44.7796 60.3172 44.5644 60.4355 44.3818L63.8545 39.2656L64.5225 39.9336L62.2627 45.3623L62.2617 45.3633C62.2069 45.4962 62.1253 45.6164 62.0215 45.7158C61.9179 45.8149 61.7949 45.8916 61.6602 45.9404Z" stroke="white" stroke-opacity="0.15" stroke-width="0.666667"/>
<g opacity="0.09" clip-path="url(#clip1_104_798)">
<path d="M83.625 24.9209V28.5532L78.6784 31.0265C78.3667 31.1824 78 30.9557 78 30.6073V25.6241L83.625 24.9209ZM84.9731 24.7524C85.2654 24.7248 85.5 24.9388 85.5 25.2175V27.326C85.5 27.505 85.4007 27.6656 85.2409 27.7453L84.5625 28.0845V24.8037L84.9731 24.7524Z" fill="white"/>
<path d="M86.4375 27.3267V25.2179C86.4375 24.3642 85.6835 23.716 84.8568 23.8227L78.0684 24.6713C78.429 22.572 79.65 20.6227 81.4808 19.3945C83.4694 18.0605 85.9817 17.6623 88.3181 18.3041C91.4337 19.1587 94 22.6435 94 25.9948V28.2396C94 28.7894 93.6764 29.292 93.1609 29.5264L82.8092 33.7937C81.4298 34.3654 79.8277 33.7169 79.2579 32.2808C79.2083 32.1562 79.1557 32.0007 79.1042 31.8623L85.6602 28.5843C85.8938 28.4675 86.0902 28.288 86.2275 28.0659C86.3648 27.8438 86.4375 27.5878 86.4375 27.3267ZM90.2188 28.3747C91.2528 28.3747 92.0938 27.5338 92.0938 26.4997C92.0938 25.4656 91.2528 24.6247 90.2188 24.6247C89.1847 24.6247 88.3438 25.4656 88.3438 26.4997C88.3438 27.5338 89.1847 28.3747 90.2188 28.3747Z" fill="white"/>
</g>
<g clip-path="url(#clip2_104_798)">
<path d="M1.22426 40.4766C0.925248 40.7758 0.925248 41.2606 1.22426 41.5597L2.3073 42.6466C2.60641 42.9456 3.09126 42.9456 3.39034 42.6466L6.09875 39.9404L3.93263 37.772L1.22426 40.4766ZM4.47417 37.2306L6.64029 39.3967C7.55559 38.4814 9.15719 39.2841 11.0591 39.4825L4.38764 32.811C4.58677 34.7136 5.38872 36.316 4.47417 37.2306ZM15.8447 37.7698C18.5371 35.1151 18.5676 30.7805 15.9129 28.0882L15.9106 28.0858C13.2604 25.3595 8.90191 25.2978 6.17559 27.9479C6.14977 27.973 6.12417 27.9983 6.09875 28.0238C5.06662 28.9788 4.44455 30.2965 4.36312 31.7004L12.1682 39.5054C13.572 39.424 14.8897 38.8019 15.8447 37.7698Z" fill="white" fill-opacity="0.06"/>
<path d="M5.60352 39.9395L3.14258 42.3994C2.98021 42.5614 2.71704 42.5615 2.55469 42.3994H2.55566L1.47266 41.3125H1.47168C1.30943 41.1502 1.30863 40.8861 1.4707 40.7236L1.47168 40.7246L3.93164 38.2666L5.60352 39.9395ZM6.41992 28.1992C9.00762 25.6838 13.1438 25.7424 15.6592 28.3301L15.6611 28.3311L15.6631 28.334H15.6641C18.1828 30.8887 18.1532 35.0016 15.5986 37.5205L15.5938 37.5264L15.5879 37.5322C14.7291 38.4603 13.5567 39.0317 12.3008 39.1426L4.72461 31.5674C4.83557 30.3116 5.40794 29.139 6.33594 28.2803L6.33691 28.2812L6.34668 28.2705C6.37074 28.2464 6.39549 28.223 6.41992 28.1992ZM10.0498 38.9678C9.95466 38.9492 9.85951 38.9334 9.76562 38.9141C9.34227 38.827 8.9202 38.7332 8.53125 38.6758C7.87668 38.5792 7.20976 38.5667 6.66504 38.9268L4.94238 37.2041C5.30189 36.6597 5.29089 35.9943 5.19434 35.3398C5.13693 34.9509 5.04415 34.5289 4.95703 34.1055C4.93759 34.011 4.92008 33.9151 4.90137 33.8193L10.0498 38.9678Z" stroke="white" stroke-opacity="0.15" stroke-width="0.7"/>
<path d="M16.6689 43.998C17.938 43.998 18.9668 42.9693 18.9668 41.7002C18.9668 40.4311 17.938 39.4023 16.6689 39.4023C15.3999 39.4023 14.3711 40.4311 14.3711 41.7002C14.3711 42.9693 15.3999 43.998 16.6689 43.998Z" fill="white" fill-opacity="0.06"/>
<path d="M16.6689 39.9023C17.6619 39.9023 18.4668 40.7073 18.4668 41.7002C18.4668 42.6931 17.6619 43.498 16.6689 43.498C15.676 43.498 14.8711 42.6931 14.8711 41.7002C14.8711 40.7073 15.676 39.9023 16.6689 39.9023Z" stroke="white" stroke-opacity="0.17"/>
</g>
</g>
<defs>
<clipPath id="clip0_104_798">
<path d="M0 11C0 4.92487 4.92487 0 11 0H68C74.0751 0 79 4.92487 79 11V29C79 35.0751 74.0751 40 68 40H11C4.92487 40 0 35.0751 0 29V11Z" fill="white"/>
</clipPath>
<clipPath id="clip1_104_798">
<rect width="16" height="16" fill="white" transform="matrix(-1 0 0 1 94 18)"/>
</clipPath>
<clipPath id="clip2_104_798">
<rect width="18" height="18" fill="white" transform="translate(1 26)"/>
</clipPath>
</defs>
</svg>
