<svg width="37" height="36" viewBox="0 0 37 36" fill="none" xmlns="http://www.w3.org/2000/svg">
<g filter="url(#filter0_d_67_2083)">
<path d="M25 20.6258H21.0781L20.5242 18.7508H25C25.1658 18.7508 25.3247 18.6849 25.4419 18.5677C25.5592 18.4505 25.625 18.2915 25.625 18.1258V17.8133C25.6251 16.7779 25.4194 15.7529 25.0199 14.7977C24.6203 13.8426 24.0349 12.9763 23.2977 12.2494C22.5604 11.5225 21.6861 10.9494 20.7254 10.5633C19.7647 10.1773 18.7368 9.98609 17.7016 10.0008C13.4563 10.0609 10 13.5641 10 17.8133C9.99989 19.0851 10.3102 20.3376 10.9041 21.4622C11.498 22.5868 12.3574 23.5494 13.4078 24.2664C13.5118 24.3376 13.6349 24.3758 13.7609 24.3758H17.5C17.6872 24.3758 17.872 24.3338 18.0407 24.2528C18.2095 24.1718 18.3579 24.054 18.4751 23.908C18.5922 23.762 18.6751 23.5915 18.7175 23.4092C18.7599 23.2269 18.7609 23.0374 18.7203 22.8547C18.7171 22.8404 18.7132 22.8264 18.7086 22.8125L18.4305 21.875H20.1437L20.9867 24.7289C21.0642 24.9875 21.2227 25.2142 21.4389 25.3757C21.6552 25.5372 21.9176 25.6249 22.1875 25.6258H25C25.3315 25.6258 25.6495 25.4941 25.8839 25.2597C26.1183 25.0253 26.25 24.7073 26.25 24.3758V21.8758C26.25 21.5443 26.1183 21.2263 25.8839 20.9919C25.6495 20.7575 25.3315 20.6258 25 20.6258ZM14.6875 21.8758C14.5021 21.8758 14.3208 21.8208 14.1667 21.7178C14.0125 21.6148 13.8923 21.4684 13.8214 21.2971C13.7504 21.1257 13.7318 20.9372 13.768 20.7554C13.8042 20.5735 13.8935 20.4065 14.0246 20.2754C14.1557 20.1443 14.3227 20.055 14.5046 20.0188C14.6865 19.9826 14.875 20.0012 15.0463 20.0722C15.2176 20.1431 15.364 20.2633 15.467 20.4174C15.57 20.5716 15.625 20.7529 15.625 20.9383C15.625 21.1869 15.5262 21.4254 15.3504 21.6012C15.1746 21.777 14.9361 21.8758 14.6875 21.8758ZM18.0594 20.6258L17.5 18.7508H19.2188L19.7727 20.6258H18.0594ZM25 24.3758H22.1875L21.4484 21.8758H25V24.3758Z" fill="url(#paint0_linear_67_2083)"/>
</g>
<defs>
<filter id="filter0_d_67_2083" x="0" y="0" width="36.25" height="35.6258" filterUnits="userSpaceOnUse" color-interpolation-filters="sRGB">
<feFlood flood-opacity="0" result="BackgroundImageFix"/>
<feColorMatrix in="SourceAlpha" type="matrix" values="0 0 0 0 0 0 0 0 0 0 0 0 0 0 0 0 0 0 127 0" result="hardAlpha"/>
<feOffset/>
<feGaussianBlur stdDeviation="5"/>
<feComposite in2="hardAlpha" operator="out"/>
<feColorMatrix type="matrix" values="0 0 0 0 0.560324 0 0 0 0 0 0 0 0 0 0.748077 0 0 0 0.7 0"/>
<feBlend mode="normal" in2="BackgroundImageFix" result="effect1_dropShadow_67_2083"/>
<feBlend mode="normal" in="SourceGraphic" in2="effect1_dropShadow_67_2083" result="shape"/>
</filter>
<linearGradient id="paint0_linear_67_2083" x1="15.7095" y1="10" x2="15.7095" y2="25.6258" gradientUnits="userSpaceOnUse">
<stop stop-color="#E597FF"/>
<stop offset="1" stop-color="#BF00FF"/>
</linearGradient>
</defs>
</svg>
