<svg width="20" height="20" viewBox="0 0 20 20" fill="none" xmlns="http://www.w3.org/2000/svg">
<g clip-path="url(#clip0_83_2087)">
<path d="M0.555521 12.8313C1.77214 16.888 5.53491 19.8461 9.98752 19.8461C15.4254 19.8461 19.8337 15.4378 19.8337 9.99996C19.8337 4.56212 15.4254 0.153809 9.98752 0.153809C4.76967 0.153809 0.499828 4.21319 0.162598 9.34581C0.800752 10.4157 1.04844 11.0775 0.554905 12.8313H0.555521Z" fill="url(#paint0_linear_83_2087)"/>
<path d="M0.555521 12.8313C1.77214 16.888 5.53491 19.8461 9.98752 19.8461C15.4254 19.8461 19.8337 15.4378 19.8337 9.99996C19.8337 4.56212 15.4254 0.153809 9.98752 0.153809C4.76967 0.153809 0.499828 4.21319 0.162598 9.34581C0.800752 10.4157 1.04844 11.0775 0.554905 12.8313H0.555521Z" fill="url(#paint1_linear_83_2087)"/>
<path d="M9.48017 7.53393L9.48109 7.58255L7.07186 11.0825C6.68171 11.0647 6.29032 11.1333 5.91863 11.2862C5.75683 11.352 5.60234 11.4345 5.45771 11.5324L0.166938 9.35178C0.166938 9.35178 0.044476 11.3659 0.55463 12.8669L4.29494 14.4102C4.47955 15.2496 5.05801 15.9856 5.90786 16.3395C6.57646 16.6173 7.32799 16.6184 7.99738 16.3425C8.66678 16.0666 9.19931 15.5363 9.47801 14.8681C9.6267 14.5121 9.69843 14.1288 9.68848 13.7432L13.1325 11.2801L13.2171 11.2816C15.2802 11.2816 16.9571 9.59978 16.9571 7.53393C16.9571 5.46809 15.2832 3.79239 13.2171 3.78809C11.1549 3.78809 9.47709 5.46809 9.47709 7.53393H9.48017ZM8.90171 14.6262C8.45432 15.7032 7.21986 16.2099 6.14694 15.7629C5.67082 15.5628 5.2849 15.1946 5.06263 14.7284L6.28017 15.233C6.46825 15.3113 6.66992 15.3518 6.87365 15.3521C7.07738 15.3524 7.27918 15.3126 7.46751 15.2349C7.65585 15.1572 7.82702 15.0432 7.97127 14.8993C8.11551 14.7554 8.22999 14.5845 8.30817 14.3964C8.46647 14.0163 8.46741 13.5888 8.31077 13.208C8.15414 12.8272 7.85274 12.5241 7.47278 12.3653L6.21125 11.8438C6.69678 11.6592 7.24878 11.653 7.76509 11.8675C8.28817 12.0838 8.68817 12.4912 8.90232 13.0121C9.11648 13.533 9.11524 14.1075 8.89925 14.6262M13.2205 10.0309C12.5594 10.0291 11.926 9.76534 11.4589 9.29745C10.9919 8.82955 10.7294 8.19564 10.7288 7.53455C10.7295 6.87357 10.9921 6.23981 11.4591 5.77205C11.9262 5.30429 12.5595 5.04065 13.2205 5.03886C13.8816 5.04048 14.5151 5.30405 14.9822 5.77183C15.4493 6.23961 15.7121 6.87346 15.7128 7.53455C15.7122 8.19574 15.4496 8.82975 14.9824 9.29766C14.5153 9.76557 13.8817 10.0292 13.2205 10.0309ZM11.3534 7.53055C11.353 7.03384 11.5498 6.55729 11.9006 6.20563C12.2514 5.85397 12.7275 5.65598 13.2242 5.65516C14.2565 5.65516 15.0962 6.49516 15.0962 7.53055C15.0964 8.02736 14.8994 8.50394 14.5483 8.8555C14.1973 9.20706 13.721 9.40483 13.2242 9.40532C12.7275 9.40458 12.2515 9.20671 11.9006 8.85518C11.5498 8.50364 11.3532 8.0272 11.3534 7.53055Z" fill="white"/>
</g>
<defs>
<linearGradient id="paint0_linear_83_2087" x1="983.717" y1="0.153809" x2="983.717" y2="1969.38" gradientUnits="userSpaceOnUse">
<stop stop-color="#111D2E"/>
<stop offset="0.212" stop-color="#051839"/>
<stop offset="0.407" stop-color="#0A1B48"/>
<stop offset="0.581" stop-color="#132E62"/>
<stop offset="0.738" stop-color="#144B7E"/>
<stop offset="0.873" stop-color="#136497"/>
<stop offset="1" stop-color="#1387B8"/>
</linearGradient>
<linearGradient id="paint1_linear_83_2087" x1="9.99814" y1="19.8461" x2="9.99814" y2="0.646117" gradientUnits="userSpaceOnUse">
<stop stop-color="#1370A2"/>
<stop offset="0.5" stop-color="#132D61"/>
<stop offset="1" stop-color="#0F1C30"/>
</linearGradient>
<clipPath id="clip0_83_2087">
<rect width="20" height="20" fill="white"/>
</clipPath>
</defs>
</svg>
