<svg width="39" height="35" viewBox="0 0 39 35" fill="none" xmlns="http://www.w3.org/2000/svg">
<g filter="url(#filter0_d_67_2085)">
<path d="M28.7506 14.3767C28.7509 14.0341 28.6707 13.6962 28.5165 13.3903C28.3623 13.0843 28.1384 12.8189 27.8628 12.6153C27.5872 12.4118 27.2677 12.2758 26.9299 12.2183C26.5922 12.1609 26.2456 12.1835 25.9182 12.2845C25.5908 12.3855 25.2918 12.562 25.0451 12.7998C24.7984 13.0375 24.611 13.3299 24.498 13.6533C24.385 13.9768 24.3495 14.3222 24.3945 14.6619C24.4394 15.0015 24.5636 15.3259 24.7568 15.6088L22.6639 18.1869L20.7818 13.8611C21.1251 13.5722 21.3712 13.1848 21.4868 12.7513C21.6025 12.3178 21.582 11.8593 21.4282 11.4378C21.2745 11.0163 20.9949 10.6523 20.6273 10.3951C20.2597 10.1379 19.8219 10 19.3732 10C18.9246 10 18.4868 10.1379 18.1192 10.3951C17.7516 10.6523 17.472 11.0163 17.3182 11.4378C17.1645 11.8593 17.144 12.3178 17.2596 12.7513C17.3753 13.1848 17.6214 13.5722 17.9646 13.8611L16.0873 18.1846L13.9943 15.6064C14.2632 15.2125 14.3959 14.7415 14.3723 14.2651C14.3487 13.7887 14.1701 13.3331 13.8636 12.9677C13.5571 12.6022 13.1396 12.347 12.6746 12.2408C12.2097 12.1345 11.7227 12.1832 11.288 12.3793C10.8532 12.5755 10.4945 12.9083 10.2664 13.3272C10.0383 13.7461 9.95333 14.228 10.0245 14.6996C10.0956 15.1712 10.319 15.6067 10.6605 15.9396C11.002 16.2726 11.4429 16.4848 11.9162 16.5439L13.0474 23.3322C13.0961 23.6241 13.2467 23.8892 13.4724 24.0805C13.6981 24.2717 13.9844 24.3767 14.2803 24.3767H24.4709C24.7668 24.3767 25.053 24.2717 25.2788 24.0805C25.5045 23.8892 25.6551 23.6241 25.7037 23.3322L26.8342 16.5471C27.3632 16.481 27.8499 16.224 28.2028 15.8243C28.5557 15.4247 28.7505 14.9099 28.7506 14.3767ZM19.3756 11.2517C19.561 11.2517 19.7422 11.3067 19.8964 11.4097C20.0506 11.5128 20.1708 11.6592 20.2417 11.8305C20.3127 12.0018 20.3312 12.1903 20.2951 12.3721C20.2589 12.554 20.1696 12.7211 20.0385 12.8522C19.9074 12.9833 19.7403 13.0726 19.5585 13.1087C19.3766 13.1449 19.1881 13.1263 19.0168 13.0554C18.8455 12.9844 18.6991 12.8643 18.5961 12.7101C18.4931 12.5559 18.4381 12.3747 18.4381 12.1892C18.4381 11.9406 18.5368 11.7022 18.7127 11.5263C18.8885 11.3505 19.1269 11.2517 19.3756 11.2517ZM11.2506 14.3767C11.2506 14.1913 11.3056 14.0101 11.4086 13.8559C11.5116 13.7017 11.658 13.5816 11.8293 13.5106C12.0006 13.4397 12.1891 13.4211 12.371 13.4573C12.5528 13.4934 12.7199 13.5827 12.851 13.7138C12.9821 13.8449 13.0714 14.012 13.1076 14.1939C13.1437 14.3757 13.1252 14.5642 13.0542 14.7355C12.9833 14.9068 12.8631 15.0532 12.7089 15.1563C12.5547 15.2593 12.3735 15.3142 12.1881 15.3142C11.9394 15.3142 11.701 15.2155 11.5252 15.0397C11.3493 14.8638 11.2506 14.6254 11.2506 14.3767ZM26.5631 15.3142C26.3777 15.3142 26.1964 15.2593 26.0422 15.1563C25.8881 15.0532 25.7679 14.9068 25.6969 14.7355C25.626 14.5642 25.6074 14.3757 25.6436 14.1939C25.6798 14.012 25.769 13.8449 25.9002 13.7138C26.0313 13.5827 26.1983 13.4934 26.3802 13.4573C26.562 13.4211 26.7505 13.4397 26.9218 13.5106C27.0931 13.5816 27.2396 13.7017 27.3426 13.8559C27.4456 14.0101 27.5006 14.1913 27.5006 14.3767C27.5006 14.6254 27.4018 14.8638 27.226 15.0397C27.0502 15.2155 26.8117 15.3142 26.5631 15.3142Z" fill="url(#paint0_linear_67_2085)"/>
</g>
<defs>
<filter id="filter0_d_67_2085" x="0" y="0" width="38.7506" height="34.3768" filterUnits="userSpaceOnUse" color-interpolation-filters="sRGB">
<feFlood flood-opacity="0" result="BackgroundImageFix"/>
<feColorMatrix in="SourceAlpha" type="matrix" values="0 0 0 0 0 0 0 0 0 0 0 0 0 0 0 0 0 0 127 0" result="hardAlpha"/>
<feOffset/>
<feGaussianBlur stdDeviation="5"/>
<feComposite in2="hardAlpha" operator="out"/>
<feColorMatrix type="matrix" values="0 0 0 0 0.560324 0 0 0 0 0 0 0 0 0 0.748077 0 0 0 0.7 0"/>
<feBlend mode="normal" in2="BackgroundImageFix" result="effect1_dropShadow_67_2085"/>
<feBlend mode="normal" in="SourceGraphic" in2="effect1_dropShadow_67_2085" result="shape"/>
</filter>
<linearGradient id="paint0_linear_67_2085" x1="16.588" y1="10" x2="16.588" y2="24.3767" gradientUnits="userSpaceOnUse">
<stop stop-color="#E597FF"/>
<stop offset="1" stop-color="#BF00FF"/>
</linearGradient>
</defs>
</svg>
